<svg width="157" height="56" viewBox="0 0 157 56" fill="none" xmlns="http://www.w3.org/2000/svg">
<path d="M18.7516 10C8.38999 10 0 18.39 0 28.7516C0 35.6314 3.6916 41.6303 9.22899 44.9024C5.5374 42.0498 3.14625 37.5611 3.14625 32.5691C3.14625 23.9693 10.1099 16.9637 18.7516 16.9637C27.3514 16.9637 34.357 23.9274 34.357 32.5691C34.357 37.645 31.9239 42.1756 28.1484 44.9863C33.7697 41.7561 37.5033 35.6734 37.5033 28.7516C37.5033 18.39 29.1133 10 18.7516 10Z" fill="#F67E3E"/>
<path d="M18.7103 22.9207C11.9144 22.9207 6.41895 28.4161 6.41895 35.212C6.41895 40.7913 10.1105 45.4897 15.2284 46.9999C11.7885 45.6156 9.35544 42.2596 9.35544 38.3163C9.35544 33.1145 13.5504 28.9195 18.7522 28.9195C23.954 28.9195 28.149 33.1145 28.149 38.3163C28.149 42.2176 25.7579 45.5736 22.3599 46.9999C27.3939 45.4478 31.0855 40.7913 31.0855 35.212C31.0436 28.458 25.5062 22.9207 18.7103 22.9207Z" fill="#F67E3E"/>
<path d="M48.1584 21.6621C44.8443 21.6621 42.4951 22.3753 42.4951 26.1507V29.3389C42.4951 33.1144 44.8443 33.8276 48.1584 33.8276C51.4724 33.8276 53.8216 33.1144 53.8216 29.3389V26.1507C53.8216 22.3753 51.4724 21.6621 48.1584 21.6621ZM50.4656 29.0033C50.4656 30.8072 49.8783 31.0169 48.1584 31.0169C46.4804 31.0169 45.8511 30.8072 45.8511 29.0033V26.4863C45.8511 24.6825 46.4384 24.4727 48.1584 24.4727C49.8783 24.4727 50.4656 24.6405 50.4656 26.4863V29.0033ZM62.3375 29.2131C62.3375 30.6394 61.876 30.7652 60.4497 30.7652C59.1073 30.7652 58.3103 30.7652 58.3103 29.3389V21.9977H55.0382V29.4228C55.0382 32.3593 55.5835 33.6178 60.4497 33.6178C64.0574 33.6178 65.6095 32.6949 65.6095 29.4228V21.9977H62.3375V29.2131ZM81.9281 30.7233H81.8442L79.2013 21.9977H66.7841V24.8503H69.9304V33.5339H73.2025V24.8503H76.7263L78.6979 31.2686C79.0335 32.5271 79.9145 33.5339 81.2149 33.5339H84.4451L88.0108 21.9977H84.6548L81.9281 30.7233ZM88.8079 24.0532V31.4784C88.8079 32.611 89.7727 33.5339 90.9473 33.5339H97.7852V30.8491H92.08V28.8355H96.3589V26.5702H92.08V24.6825H97.7852V21.9977H90.9473C89.7727 21.9977 88.8079 22.8787 88.8079 24.0532ZM108.357 30.6813H108.231L105.546 24.3049C105.084 23.0465 104.329 21.9977 102.987 21.9977H99.1695V33.5339H102.442L102.274 24.8503H102.4L105.043 31.2267C105.504 32.4852 106.259 33.5339 107.601 33.5339H111.419V21.9977H108.147L108.357 30.6813ZM112.468 24.8503H115.614V33.5339H118.886V24.8503H122.158V21.9977H112.468V24.8503ZM130.506 29.2131C130.506 30.6394 130.045 30.7652 128.618 30.7652C127.276 30.7652 126.479 30.7652 126.479 29.3389V21.9977H123.207V29.4228C123.207 32.3593 123.752 33.6178 128.618 33.6178C132.226 33.6178 133.778 32.6949 133.778 29.4228V21.9977H130.506V29.2131V29.2131ZM145.147 25.3537C145.147 22.5011 143.72 21.9977 141.287 21.9977H135.079V33.5339H138.351V29.255H140.532C141.539 29.255 141.875 29.5067 141.875 30.4296V33.5339H145.147V30.1779C145.147 28.7936 144.392 28.0385 143.049 27.9546V27.9126C144.685 27.7448 145.147 27.1575 145.147 25.3537ZM140.448 27.2414H138.309V24.6825H140.826C141.749 24.6825 141.833 24.9342 141.833 26.0249C141.875 27.1995 141.581 27.2414 140.448 27.2414ZM155.215 24.6825V21.9977H148.377C147.202 21.9977 146.237 22.8787 146.237 24.0532V31.4784C146.237 32.611 147.202 33.5339 148.377 33.5339H155.215V30.8491H149.509V28.8355H153.788V26.5702H149.509V24.6825H155.215Z" fill="#F67E3E"/>
</svg>