<svg width="116" height="56" viewBox="0 0 116 56" fill="none" xmlns="http://www.w3.org/2000/svg">
<path d="M24.6746 21.9023L15.5901 21.8401L14.5946 12.6624L9.67904 21.8401L0.345703 21.7779L6.47459 27.5023L1.65237 36.649L10.7368 30.8312L17.1146 36.5868L16.2124 27.3468L24.6746 21.9023ZM6.53681 31.4534L8.87015 26.9112L5.19904 23.6757L18.4213 23.769L6.53681 31.4534Z" fill="#E20613"/>
<path d="M108.767 36.0267C106.651 36.0267 105.407 35.4356 104.598 34.1289L99.7758 26.6934L96.6647 36.0267H92.4336L96.9447 21.9956H97.878C99.6203 21.9956 100.927 22.2445 101.954 23.8001L106.838 31.4223L109.887 21.9956H114.18L109.669 36.0267H108.767" fill="#3C3C3B"/>
<path d="M23.084 36.0578L24.0173 33.1023H33.4129H33.9729C34.6884 33.1023 35.2795 32.9778 35.6218 32.76C35.7151 32.6978 36.0573 32.4489 36.0884 32.1378C36.1195 32.0134 36.0884 31.8889 35.9951 31.7956C35.8707 31.6089 35.5907 31.4534 35.1862 31.3289L28.7151 29.4311C27.4707 29.0578 26.5373 28.4045 26.1018 27.5334C25.7907 26.9423 25.7595 26.2889 25.9773 25.6356C26.2884 24.7334 26.9729 23.8623 28.0307 23.1778C29.2751 22.3378 30.4884 21.9956 31.9507 21.9956H41.7195L40.7862 24.92H31.8262C31.5462 24.92 30.7373 24.92 30.4573 25.2623C30.2707 25.48 30.1773 25.7912 30.2707 26.04C30.3329 26.32 30.6129 26.4756 30.8929 26.6C31.0173 26.6623 31.1107 26.6934 31.2351 26.7245C32.5729 27.1289 37.7062 28.6223 37.7062 28.6223C38.9507 28.9956 39.8529 29.6489 40.2573 30.4578C40.5373 31.0489 40.5995 31.6711 40.3818 32.3867C40.0707 33.3823 39.604 34.2222 38.3284 34.9067C37.0218 35.6222 35.3418 36.0578 33.6929 36.0578H23.084" fill="#3C3C3B"/>
<path d="M43.5232 21.9956L42.5898 24.92H48.4387L44.8298 36.0578H49.1232L52.7009 24.92H57.9898L58.892 21.9956H43.5232Z" fill="#3C3C3B"/>
<path d="M74.4146 32.4802L88.6013 26.8491C90.2502 26.1957 89.9391 24.9824 88.9436 24.9824H80.4813L79.4858 28.0624L75.348 29.7113L77.7747 22.058L89.9702 22.0269C90.9658 22.0269 91.7747 22.3069 92.3036 22.8669C92.8014 23.3646 93.0191 24.0802 93.0191 24.8891C92.9569 26.6624 91.588 28.6224 89.7213 29.618C89.5347 29.7113 89.2547 29.8357 88.9436 29.9913L91.8991 36.1202H87.6369L85.3347 31.3913L73.2324 36.2446L74.4146 32.4802Z" fill="#3C3C3B"/>
<path d="M75.0679 24.9513L76.0012 22.0269H60.6634C60.6634 22.0269 57.3345 32.3869 57.3345 32.4491C56.5256 34.8446 57.8634 36.0891 59.7301 36.0891C59.9479 36.0891 71.4901 36.0891 71.4901 36.0891L72.4234 33.1646H62.9345H62.7167C62.4056 33.1646 61.9701 33.1024 61.7834 32.8535C61.5967 32.6046 61.659 32.2002 61.7834 31.9202L62.3123 30.3957H70.9612L71.8323 27.7202H63.0901L64.0234 24.9513H75.0679" fill="#3C3C3B"/>
</svg>