<?xml version="1.0" encoding="UTF-8" standalone="no"?>
<!DOCTYPE svg PUBLIC "-//W3C//DTD SVG 1.1//EN" "http://www.w3.org/Graphics/SVG/1.1/DTD/svg11.dtd">
<svg width="100%" height="100%" viewBox="0 0 31 50" version="1.1" xmlns="http://www.w3.org/2000/svg" xmlns:xlink="http://www.w3.org/1999/xlink" xml:space="preserve" xmlns:serif="http://www.serif.com/" style="fill-rule:evenodd;clip-rule:evenodd;stroke-linejoin:round;stroke-miterlimit:2;">
    <g transform="matrix(1,0,0,1,-28.4983,-3.45815)">
        <g>
            <path d="M53.568,24.681C53.309,23.482 52.755,22.58 51.977,21.898C51.709,21.615 51.385,21.415 51.017,21.203C50.831,21.096 50.697,21.03 50.454,20.938C50.051,20.785 49.521,20.606 48.863,20.673C49.193,20.506 49.684,20.499 50.188,20.507C50.607,20.552 50.955,20.668 51.314,20.772C51.615,20.935 51.913,21.101 52.209,21.269C52.935,19.099 52.657,16.128 51.845,14.214C51.06,12.206 49.918,10.553 48.434,9.246C46.974,7.912 45.22,6.872 42.901,6.397C41.754,6.149 40.311,6.189 39.257,6.43C38.156,6.72 37.241,7.196 36.442,7.788C35.699,8.447 34.978,9.128 34.488,10.04C34.311,10.217 34.236,10.495 34.09,10.703C33.988,10.954 33.874,11.193 33.759,11.431C33.588,11.955 33.392,12.455 33.295,13.055C33.03,14.139 32.982,15.629 33.163,16.798C33.299,18.053 33.667,19.076 34.058,20.077C34.299,20.543 34.518,21.03 34.786,21.468C35.04,21.91 35.354,22.291 35.648,22.694C36.315,23.418 37.032,24.091 37.867,24.649C39.559,25.751 41.501,26.602 44.161,26.735C44.214,26.627 44.09,26.411 44.062,26.272C44.022,26.113 44.006,25.93 43.961,25.775C43.924,25.418 43.912,25.002 43.961,24.649C44.067,24.676 44.064,24.811 44.128,24.88C44.185,24.945 44.206,25.046 44.294,25.079C44.36,25.266 44.505,25.375 44.592,25.543C44.842,25.801 45.036,26.114 45.354,26.304C45.607,26.56 45.944,26.73 46.249,26.934C46.577,27.103 46.858,27.318 47.243,27.43C47.901,27.777 48.783,27.899 49.661,28.027C50.546,28.147 51.399,28.298 52.211,28.491C52.959,28.748 53.721,28.99 54.331,29.385C54.653,29.571 54.971,29.762 55.258,29.982C55.399,30.095 55.576,30.171 55.689,30.313C55.864,30.382 55.94,30.548 56.12,30.611C56.635,31.101 57.142,31.598 57.579,32.168C57.759,32.496 58.004,32.758 58.142,33.129C58.263,33.262 58.298,33.481 58.407,33.625C58.414,33.813 58.596,34.039 58.44,34.188C58.194,34.224 58.244,33.964 58.142,33.857C58.062,33.727 57.962,33.616 57.909,33.461C57.522,33.054 57.175,32.606 56.751,32.235C56.331,31.871 55.918,31.499 55.426,31.208C54.501,30.554 53.429,30.049 52.18,29.717C50.951,29.362 49.572,29.219 47.974,29.321C47.272,29.413 46.602,29.54 46.019,29.751C45.392,29.907 44.693,29.992 43.998,30.082C41.287,30.249 38.269,29.603 36.247,28.626C35.169,28.126 34.176,27.539 33.333,26.804C32.872,26.471 32.495,26.052 32.107,25.645C31.753,25.215 31.379,24.804 31.113,24.287C30.759,23.846 30.549,23.261 30.251,22.764C30.058,22.174 29.783,21.664 29.655,21.009C29.452,20.417 29.328,19.746 29.258,19.022C29.246,18.823 29.157,18.439 29.158,18.127C29.158,18.099 29.194,18.075 29.191,18.028C29.176,17.745 29.109,17.31 29.191,17.068C29.176,16.411 29.294,15.604 29.423,14.981C29.542,14.316 29.718,13.71 29.92,13.127C30.117,12.53 30.378,11.996 30.615,11.438C30.774,11.2 30.895,10.924 31.045,10.677C31.172,10.417 31.362,10.221 31.477,9.948C31.604,9.877 31.627,9.701 31.741,9.617C31.792,9.47 31.93,9.408 31.973,9.253C32.082,9.163 32.168,9.05 32.238,8.921C32.339,8.823 32.444,8.73 32.503,8.589C32.898,8.2 33.251,7.769 33.662,7.397C34.072,7.012 34.531,6.676 34.954,6.304C35.223,6.176 35.417,5.972 35.683,5.841C35.885,5.656 36.179,5.563 36.379,5.377C36.929,5.128 37.4,4.803 38,4.608C38.517,4.341 39.137,4.177 39.723,3.979C40.994,3.652 42.278,3.428 43.862,3.482C43.92,3.489 43.948,3.425 43.962,3.482C46.964,3.572 49.152,4.477 51.018,5.701C52.867,6.932 54.298,8.581 55.324,10.637C56.327,12.673 56.891,15.439 56.418,18.354C56.181,19.663 55.798,20.825 55.324,21.898C55.053,22.4 54.812,22.932 54.496,23.389C54.358,23.636 54.21,23.875 54.032,24.085C53.973,24.212 53.888,24.316 53.802,24.416C53.763,24.477 53.714,24.528 53.669,24.582C53.653,24.611 53.64,24.641 53.603,24.648C53.61,24.707 53.57,24.716 53.568,24.681Z" style="fill:rgb(246,142,31);"/>
            <path d="M52.773,25.542C52.384,25.389 52.319,24.914 52.143,24.548C52.112,24.414 52.084,24.212 52.143,24.084C52.169,24.078 52.176,24.051 52.209,24.051C52.307,23.988 52.399,24.068 52.54,24.117C52.73,24.335 52.852,24.622 52.937,24.945C52.945,25.207 52.965,25.48 52.773,25.542Z" style="fill:rgb(246,142,31);"/>
            <path d="M49.858,24.979C49.865,24.941 49.892,24.96 49.892,24.979C50.479,25.053 50.748,25.446 50.786,26.072C50.733,26.418 50.54,26.621 50.223,26.701C49.432,26.714 48.982,25.986 49.263,25.243C49.42,25.115 49.532,24.94 49.858,24.979Z" style="fill:rgb(246,142,31);"/>
            <path d="M33.959,47.038C34.053,47.441 34.259,47.733 34.489,48C34.718,48.268 34.989,48.492 35.317,48.662C35.623,48.852 35.956,49.016 36.343,49.125C36.531,49.192 36.711,49.267 36.939,49.29C37.097,49.377 37.294,49.424 37.304,49.655C37.296,49.933 37.109,50.034 36.873,50.086C36.636,50.036 36.342,50.043 36.144,49.953C35.642,49.893 35.239,49.732 34.819,49.589C34.01,49.272 33.334,48.821 32.765,48.264C32.649,48.071 32.492,47.92 32.368,47.734C32.245,47.548 32.162,47.322 32.036,47.139C31.052,47.008 30.379,46.565 29.784,46.045C29.237,45.422 28.806,44.682 28.624,43.693C28.415,42.743 28.479,41.561 28.724,40.645C29.266,38.87 30.41,37.692 32.566,37.532C33.161,37.551 33.68,37.623 34.156,37.798C34.634,37.971 35.09,38.29 35.448,38.625C35.477,38.652 35.49,38.655 35.514,38.691C35.589,38.803 35.775,38.953 35.878,39.088C35.898,39.114 35.89,39.158 35.911,39.188C35.952,39.243 36.01,39.269 36.044,39.321C36.066,39.354 36.058,39.389 36.078,39.42C36.103,39.461 36.138,39.519 36.177,39.586C36.192,39.612 36.233,39.633 36.242,39.652C36.299,39.76 36.324,39.894 36.375,40.016C36.428,40.142 36.499,40.255 36.541,40.38C36.667,40.76 36.751,41.204 36.806,41.671C36.935,43.005 36.671,44.196 36.177,45.083C35.944,45.546 35.624,45.923 35.249,46.242C34.901,46.59 34.422,46.807 33.959,47.038ZM32.369,38.691C32.08,38.712 31.907,38.847 31.673,38.923C31.519,39.066 31.326,39.172 31.209,39.354C31.018,39.46 30.966,39.707 30.812,39.85C30.683,40.172 30.559,40.529 30.48,40.944C30.403,41.352 30.351,41.816 30.348,42.269C30.34,43.409 30.583,44.542 31.043,45.217C31.31,45.545 31.636,45.816 32.037,46.011C32.267,46.033 32.45,46.106 32.699,46.111C32.837,46.061 33.073,46.108 33.163,46.011C33.366,46.027 33.416,45.889 33.593,45.878C33.686,45.783 33.793,45.703 33.925,45.647C34.044,45.512 34.16,45.375 34.289,45.25C34.356,45.151 34.392,45.021 34.488,44.951C35.064,43.849 35.13,41.828 34.753,40.546C34.615,40.076 34.412,39.698 34.19,39.387C33.946,39.134 33.658,38.925 33.329,38.757C33.064,38.702 32.815,38.631 32.468,38.659C32.448,38.66 32.429,38.663 32.434,38.691L32.369,38.691Z" style="fill:rgb(2,105,179);"/>
            <path d="M39.358,37.764C39.878,37.785 40.483,37.721 40.947,37.798C41.051,37.961 41.01,38.148 41.013,38.327C41.05,40.758 41.013,43.362 41.013,45.846C41.013,46.046 41.018,46.247 41.013,46.443C41.008,46.608 41.05,46.788 40.947,46.94C40.714,46.998 40.385,46.973 40.086,46.973C39.774,46.973 39.465,47.015 39.258,46.906C39.202,43.969 39.202,40.801 39.258,37.864C39.277,37.815 39.311,37.782 39.358,37.764Z" style="fill:rgb(2,105,179);"/>
            <path d="M43.333,37.764L44.89,37.764C45.03,37.955 45.074,38.243 45.122,38.527C45.589,40.311 46.054,42.099 46.479,43.925C46.58,43.938 46.548,43.817 46.579,43.759C46.625,43.717 46.6,43.603 46.645,43.561C46.664,43.414 46.752,43.337 46.745,43.164C46.863,42.94 46.898,42.632 47.009,42.402C47.146,41.865 47.321,41.365 47.474,40.845C47.62,40.306 47.819,39.82 47.938,39.254C48.157,38.801 48.209,38.18 48.468,37.764L49.129,37.764C49.368,38.21 49.453,38.811 49.66,39.288C49.792,39.828 49.982,40.312 50.123,40.845C50.451,41.875 50.787,42.897 51.084,43.958C51.216,43.759 51.217,43.429 51.315,43.196C51.373,42.932 51.423,42.663 51.513,42.434C51.77,41.386 52.01,40.326 52.309,39.321C52.421,38.793 52.529,38.259 52.705,37.798C53.089,37.743 53.682,37.743 54.063,37.798C54.097,38.187 53.914,38.609 53.799,38.956C53.737,39.382 53.579,39.708 53.5,40.115C53.264,40.862 53.081,41.662 52.837,42.401C52.65,43.196 52.4,43.929 52.208,44.72C52.081,45.088 51.987,45.491 51.877,45.878C51.748,46.235 51.704,46.678 51.512,46.972L50.585,46.972C50.349,46.556 50.265,45.99 50.055,45.548C49.594,44.086 49.078,42.681 48.631,41.208C48.474,41.371 48.478,41.694 48.366,41.903C48.296,42.153 48.225,42.403 48.134,42.632C48.009,43.137 47.814,43.57 47.703,44.089C47.519,44.546 47.382,45.048 47.24,45.548C47.045,45.982 46.975,46.541 46.743,46.939C46.497,47.013 46.116,46.952 45.816,46.972C45.582,46.708 45.56,46.233 45.417,45.878C45.306,45.506 45.229,45.096 45.087,44.752C44.91,43.945 44.64,43.232 44.457,42.434C44.217,41.693 44.013,40.913 43.794,40.148C43.675,39.782 43.581,39.389 43.463,39.023C43.408,38.624 43.139,38.266 43.231,37.83C43.258,37.799 43.293,37.78 43.333,37.764Z" style="fill:rgb(2,105,179);"/>
            <path d="M56.417,37.764C56.936,37.785 57.541,37.721 58.007,37.798C58.121,38.147 58.073,38.516 58.073,38.89L58.073,45.846C58.073,46.223 58.121,46.59 58.007,46.94C57.649,46.981 57.122,46.995 56.682,46.973C56.556,46.967 56.402,47.003 56.318,46.906C56.204,46.562 56.252,46.192 56.252,45.813L56.252,38.924C56.252,38.506 56.213,38.106 56.318,37.83C56.342,37.799 56.378,37.78 56.417,37.764Z" style="fill:rgb(2,105,179);"/>
            <path d="M47.109,50.781C47.313,50.886 47.528,50.98 47.672,51.145C47.791,51.333 47.851,51.688 47.771,51.974C47.477,52.585 46.454,52.635 45.685,52.436L45.685,49.423C45.912,49.307 46.271,49.325 46.612,49.323C46.836,49.352 47.054,49.387 47.242,49.455C47.487,49.608 47.697,49.932 47.573,50.35C47.454,50.531 47.347,50.721 47.109,50.781ZM47.109,50.317C47.193,49.684 46.678,49.576 46.148,49.655L46.148,50.716C46.64,50.755 46.966,50.627 47.109,50.317ZM47.274,51.874C47.443,51.194 46.836,50.867 46.181,51.013C46.104,51.345 46.17,51.82 46.148,52.205C46.637,52.243 47.084,52.212 47.274,51.874Z" style="fill:rgb(2,105,179);"/>
            <path d="M39.656,49.357C39.728,49.715 39.67,50.203 39.689,50.616C39.709,50.677 39.828,50.558 39.821,50.483C39.879,50.441 39.952,50.414 39.954,50.317C40.067,50.23 40.158,50.124 40.22,49.986C40.443,49.812 40.554,49.525 40.783,49.357C40.905,49.368 41.076,49.329 41.147,49.39C41.034,49.674 40.813,49.851 40.65,50.085C40.496,50.318 40.288,50.496 40.153,50.748C40.324,51.061 40.57,51.301 40.749,51.608C40.959,51.884 41.2,52.129 41.346,52.469C41.226,52.538 40.987,52.487 40.816,52.502C40.614,52.262 40.449,51.985 40.253,51.74C40.088,51.462 39.864,51.245 39.723,50.945C39.645,51.386 39.712,51.972 39.689,52.468C39.59,52.534 39.376,52.487 39.226,52.501C39.168,51.543 39.173,50.205 39.226,49.355C39.369,49.357 39.513,49.357 39.656,49.357Z" style="fill:rgb(2,105,179);"/>
            <path d="M44.161,50.252C44.21,50.231 44.158,50.211 44.161,50.252C43.586,50.981 43.075,51.772 42.504,52.504L42.107,52.504C42.052,51.532 42.052,50.329 42.107,49.358L42.471,49.358L42.471,51.743C42.5,51.832 42.551,51.674 42.571,51.643C42.617,51.589 42.664,51.539 42.702,51.478C42.772,51.359 42.866,51.265 42.934,51.146C43.09,50.927 43.266,50.727 43.398,50.484C43.594,50.304 43.694,50.029 43.895,49.854C43.941,49.713 44.034,49.618 44.127,49.524C44.136,49.333 44.353,49.35 44.558,49.358C44.537,50.396 44.602,51.522 44.525,52.504L44.194,52.504C44.118,51.818 44.183,50.993 44.161,50.252Z" style="fill:rgb(2,105,179);"/>
            <path d="M49.129,49.391L49.129,51.577C49.16,51.667 49.21,51.508 49.23,51.478C49.297,51.468 49.296,51.389 49.329,51.345C49.421,51.271 49.453,51.137 49.56,51.08C49.661,50.848 49.834,50.692 49.959,50.483C50.244,50.118 50.5,49.723 50.786,49.357L51.183,49.357C51.238,50.329 51.238,51.532 51.183,52.503L50.852,52.503C50.775,51.774 50.839,50.902 50.818,50.118C50.79,50.055 50.799,50.154 50.753,50.15C50.737,50.18 50.724,50.21 50.687,50.217C50.683,50.301 50.626,50.333 50.587,50.382C50.514,50.496 50.438,50.608 50.355,50.714C50.209,50.942 50.028,51.136 49.893,51.376C49.733,51.592 49.552,51.786 49.428,52.038C49.198,52.184 49.227,52.588 48.766,52.502C48.711,51.53 48.711,50.327 48.766,49.356C48.887,49.368 49.059,49.329 49.129,49.391Z" style="fill:rgb(2,105,179);"/>
        </g>
    </g>
</svg>
