<?xml version="1.0" encoding="UTF-8" standalone="no"?>
<!DOCTYPE svg PUBLIC "-//W3C//DTD SVG 1.1//EN" "http://www.w3.org/Graphics/SVG/1.1/DTD/svg11.dtd">
<svg width="100%" height="100%" viewBox="0 0 62 27" version="1.1" xmlns="http://www.w3.org/2000/svg" xmlns:xlink="http://www.w3.org/1999/xlink" xml:space="preserve" xmlns:serif="http://www.serif.com/" style="fill-rule:evenodd;clip-rule:evenodd;stroke-linejoin:round;stroke-miterlimit:2;">
    <g transform="matrix(1,0,0,1,-1,-18.8)">
        <g>
            <g>
                <g>
                    <path d="M25.3,35.3L25.6,35.3C25.9,35.3 26.1,35.2 26.2,35L27.1,33.7L29.4,33.7L28.9,34.5L31.7,34.5L31.3,35.8L28,35.8C27.6,36.4 27.2,36.6 26.6,36.6L24.9,36.6L25.3,35.3M24.9,37.1L30.9,37.1L30.5,38.5L28.1,38.5L27.7,39.9L30.1,39.9L29.7,41.3L27.3,41.3L26.7,43.3C26.6,43.6 26.7,43.8 27.2,43.7L29.1,43.7L28.7,45L25,45C24.3,45 24.1,44.6 24.3,43.8L25,41.2L23.5,41.2L23.9,39.8L25.4,39.8L25.8,38.4L24.4,38.4L24.9,37.1ZM34.6,33.7L34.5,34.5C34.5,34.5 35.6,33.6 36.7,33.6L40.5,33.6L39,39C38.9,39.6 38.4,39.9 37.4,39.9L33.1,39.9L32.1,43.6C32,43.8 32.1,43.9 32.3,43.9L33.2,43.9L32.9,45L30.7,45C29.9,45 29.5,44.8 29.7,44.2L32.6,33.6L34.6,33.6L34.6,33.7ZM37.8,35.2L34.4,35.2L34,36.6C34,36.6 34.6,36.2 35.5,36.2L37.5,36.2L37.8,35.2ZM36.6,38.5C36.9,38.5 37,38.4 37,38.2L37.2,37.4L33.8,37.4L33.5,38.5L36.6,38.5ZM34.3,40.2L36.3,40.2L36.3,41.1L36.8,41.1C37.1,41.1 37.2,41 37.2,40.8L37.4,40.2L39,40.2L38.8,41C38.6,41.7 38.1,42 37.3,42.1L36.2,42.1L36.2,43.6C36.2,43.8 36.4,44 36.8,44L37.8,44L37.5,45.2L35.1,45.2C34.4,45.2 34.1,44.9 34.1,44.2L34.3,40.2Z" style="fill:rgb(0,157,165);fill-rule:nonzero;"/>
                </g>
            </g>
            <g>
                <g>
                    <path d="M27.6,36.3C27.7,36.2 27.9,36 28,35.9L31.3,35.9L31.7,34.6L28.9,34.6L29.4,33.8L27.1,33.8L26.2,35C26.1,35.2 25.9,35.3 25.6,35.3L25.3,35.3L25.2,35.6C26,35.8 26.8,36.1 27.6,36.3Z" style="fill:rgb(2,204,204);fill-rule:nonzero;"/>
                </g>
                <g>
                    <path d="M34.5,34.5L34.6,33.7L32.6,33.7L31.7,36.9C32.2,36.9 32.8,37 33.3,37C35.6,37 37.7,36.7 39.8,36.1L40.5,33.7L36.7,33.7C35.6,33.7 34.5,34.5 34.5,34.5ZM37.5,36.2L35.5,36.2C34.5,36.2 34,36.6 34,36.6L34.4,35.2L37.8,35.2L37.5,36.2Z" style="fill:rgb(2,204,204);fill-rule:nonzero;"/>
                </g>
            </g>
            <g>
                <g>
                    <path d="M42.6,35.3L43.1,33.7L45.4,33.7L45.3,34.3C45.3,34.3 46.5,33.7 47.3,33.7L50.2,33.7L49.7,35.3L49.3,35.3L47.1,42.9L47.5,42.9L47.1,44.4L46.6,44.4L46.4,45.1L44.2,45.1L44.4,44.4L40,44.4L40.4,42.9L40.8,42.9L43,35.3L42.6,35.3M45.1,35.3L44.5,37.4C44.5,37.4 45.5,37 46.4,36.9C46.6,36.2 46.8,35.3 46.8,35.3L45.1,35.3ZM44.3,38.4L43.7,40.6C43.7,40.6 44.8,40.1 45.6,40C45.8,39.2 46,38.4 46,38.4L44.3,38.4ZM44.7,42.9L45.1,41.3L43.4,41.3L43,42.9L44.7,42.9ZM50.3,33.6L52.5,33.6L52.6,34.4C52.6,34.6 52.7,34.7 53,34.7L53.4,34.7L53,36.1L51.4,36.1C50.8,36.1 50.5,35.9 50.4,35.4L50.3,33.6ZM49.7,36.6L56.7,36.6L56.3,38L54.1,38L53.7,39.4L55.9,39.4L55.5,40.9L53,40.9L52.4,41.8L53.6,41.8L53.9,43.5C53.9,43.7 54.1,43.8 54.3,43.8L54.7,43.8L54.3,45.2L53,45.2C52.3,45.2 51.9,45 51.9,44.5L51.6,42.9L50.5,44.6C50.2,45.1 49.8,45.3 49.3,45.3L47.2,45.3L47.6,43.9L48.2,43.9C48.5,43.9 48.7,43.8 48.9,43.5L50.6,41L48.4,41L48.8,39.5L51.2,39.5L51.6,38.1L49.2,38.1L49.7,36.6Z" style="fill:rgb(0,157,165);fill-rule:nonzero;"/>
                </g>
            </g>
            <g>
                <path d="M45.4,33.8L43.1,33.8L42.7,35.1C43.6,34.7 44.5,34.3 45.4,33.8Z" style="fill:rgb(2,204,204);fill-rule:nonzero;"/>
            </g>
            <g>
                <g>
                    <path d="M10.3,26.6C10,27.9 9.4,28.9 8.5,29.6C7.5,30.3 6.3,30.7 4.8,30.7C3.4,30.7 2.3,30.3 1.7,29.6C1.2,29.1 1,28.4 1,27.6C1,27.3 1,26.9 1.1,26.5L2.7,18.8L5.1,18.8L3.5,26.4C3.5,26.6 3.4,26.8 3.4,27C3.4,27.4 3.5,27.7 3.7,28C4,28.4 4.5,28.6 5.1,28.6C5.8,28.6 6.5,28.4 6.9,28.1C7.4,27.7 7.7,27.2 7.8,26.5L9.4,18.9L12,18.9L10.3,26.6" style="fill:rgb(255,127,41);fill-rule:nonzero;"/>
                </g>
            </g>
            <g>
                <g>
                    <path d="M10.3,26.6C10,27.9 9.4,28.9 8.5,29.6C7.5,30.3 6.3,30.7 4.8,30.7C3.4,30.7 2.3,30.3 1.7,29.6C1.2,29.1 1,28.4 1,27.6C1,27.3 1,26.9 1.1,26.5L4.6,18.8L5.1,18.8L3.5,26.4C3.5,26.6 3.4,26.8 3.4,27C3.4,27.4 3.5,27.7 3.7,28C4,28.4 4.5,28.6 5.1,28.6C5.8,28.6 6.5,28.4 6.9,28.1C7.4,27.7 7.7,27.2 7.8,26.5L11.3,18.9L12,18.9L10.3,26.6" style="fill:rgb(234,34,39);fill-rule:nonzero;"/>
                </g>
            </g>
            <g>
                <g>
                    <path d="M12.6,23.6L14.3,23.6L14.1,24.6L14.3,24.3C14.9,23.7 15.5,23.4 16.3,23.4C17,23.4 17.5,23.6 17.9,24C18.2,24.4 18.3,25 18.2,25.7L17.3,30.4L15.5,30.4L16.3,26.1C16.4,25.7 16.4,25.3 16.2,25.1C16.1,24.9 15.8,24.8 15.4,24.8C14.9,24.8 14.6,24.9 14.3,25.2C14,25.5 13.8,25.9 13.7,26.4L12.9,30.4L11.1,30.4L12.6,23.6" style="fill:rgb(234,34,39);fill-rule:nonzero;"/>
                </g>
            </g>
            <g>
                <g>
                    <path d="M32.2,23.6L33.9,23.6L33.7,24.6L33.9,24.3C34.5,23.7 35.1,23.4 35.9,23.4C36.6,23.4 37.1,23.6 37.5,24C37.8,24.4 37.9,25 37.8,25.7L36.9,30.4L35.1,30.4L36,26.1C36.1,25.7 36.1,25.3 35.9,25.1C35.8,24.9 35.5,24.8 35.1,24.8C34.6,24.8 34.3,24.9 34,25.2C33.7,25.5 33.5,25.9 33.4,26.4L32.6,30.4L30.8,30.4L32.2,23.6" style="fill:rgb(165,0,47);fill-rule:nonzero;"/>
                </g>
            </g>
            <g>
                <g>
                    <path d="M20.5,23.6L22.4,23.6L20.9,30.5L19,30.5L20.5,23.6M21.1,21.1L23,21.1L22.6,22.8L20.7,22.8L21.1,21.1Z" style="fill:rgb(234,34,39);fill-rule:nonzero;"/>
                </g>
            </g>
            <g>
                <g>
                    <path d="M24.1,30C23.6,29.5 23.4,28.9 23.4,28.1L23.4,27.6C23.4,27.4 23.4,27.3 23.5,27.1C23.7,26 24.2,25.1 24.9,24.4C25.6,23.7 26.5,23.4 27.6,23.4C28.5,23.4 29.1,23.6 29.6,24.1C30.1,24.6 30.3,25.2 30.3,26.1L30.3,26.6C30.3,26.8 30.3,26.9 30.2,27.1C30,28.2 29.5,29.1 28.8,29.7C28.1,30.3 27.2,30.7 26.1,30.7C25.3,30.7 24.6,30.4 24.1,30M27.7,28.6C28,28.2 28.3,27.7 28.4,27C28.4,26.9 28.4,26.8 28.5,26.6L28.5,26.3C28.5,25.9 28.4,25.5 28.2,25.3C28,25.1 27.7,24.9 27.3,24.9C26.8,24.9 26.3,25.1 26,25.5C25.7,25.9 25.4,26.4 25.3,27.2C25.3,27.3 25.3,27.4 25.2,27.5L25.2,27.8C25.2,28.2 25.3,28.6 25.5,28.8C25.7,29 26,29.1 26.4,29.1C27,29.1 27.4,29 27.7,28.6" style="fill:rgb(234,34,39);fill-rule:nonzero;"/>
                </g>
            </g>
            <g>
                <g>
                    <path d="M40.7,19.3L45.7,19.3C46.7,19.3 47.4,19.5 47.9,19.9C48.4,20.3 48.7,20.9 48.7,21.8L48.7,22.3C48.7,22.5 48.6,22.7 48.6,22.9C48.4,24 47.9,24.8 47.1,25.5C46.3,26.1 45.4,26.5 44.3,26.5L41.6,26.5L40.8,30.5L38.5,30.5L40.7,19.3M41.9,24.5L44.1,24.5C44.7,24.5 45.1,24.4 45.5,24.1C45.8,23.8 46,23.4 46.2,22.9L46.2,22.4C46.2,22 46.1,21.7 45.8,21.5C45.5,21.3 45.1,21.2 44.5,21.2L42.6,21.2L41.9,24.5Z" style="fill:rgb(19,152,226);fill-rule:nonzero;"/>
                </g>
            </g>
            <g>
                <g>
                    <path d="M42.6,19.3L45.6,19.3C46.6,19.3 47.3,19.5 47.8,19.9C48.3,20.3 48.6,20.9 48.6,21.8L48.6,22.3C48.6,22.5 48.5,22.7 48.5,22.9C48.3,24 47.8,24.8 47,25.5C46.2,26.1 45.3,26.5 44.2,26.5L41.5,26.5L40.7,30.5L38.4,30.5L42.6,19.3M41.9,24.5L44.1,24.5C44.7,24.5 45.1,24.4 45.5,24.1C45.8,23.8 46,23.4 46.2,22.9L46.2,22.4C46.2,22 46.1,21.7 45.8,21.5C45.5,21.3 45.1,21.2 44.5,21.2L42.6,21.2L41.9,24.5Z" style="fill:rgb(8,114,185);fill-rule:nonzero;"/>
                </g>
            </g>
            <g>
                <g>
                    <path d="M58.9,31.8C58.2,33.4 57.5,34.3 57.1,34.7C56.7,35.1 55.9,36.1 53.9,36L54.1,34.8C55.7,34.3 56.6,32 57.1,31L56.5,23.6L58.9,23.6L59,28.3L61,23.6L63,23.6L58.9,31.8" style="fill:rgb(5,80,147);fill-rule:nonzero;"/>
                </g>
            </g>
            <g>
                <g>
                    <path d="M53.3,24.1L52.5,24.7C51.7,24 50.9,23.6 49.4,24.3C47.4,25.2 45.7,32.4 51.2,30L51.5,30.4L53.7,30.5L55.1,24L53.3,24.1M52,27.7C51.6,28.7 50.9,29.4 50.3,29.2C49.7,29 49.5,28 49.8,27C50.2,26 50.9,25.3 51.5,25.5C52.2,25.7 52.4,26.7 52,27.7" style="fill:rgb(8,114,185);fill-rule:nonzero;"/>
                </g>
            </g>
            <g>
                <path d="M49.7,30.5C50.1,30.4 50.6,30.3 51.2,30.1L51.5,30.5L53.7,30.6L55.1,24.1L54.6,24.1C53.6,26.6 51.8,28.8 49.7,30.5Z" style="fill:rgb(5,80,147);fill-rule:nonzero;"/>
            </g>
            <g>
                <path d="M29.6,24.1C29.1,23.6 28.4,23.4 27.6,23.4L27.1,23.4C26.9,24 26.6,24.6 26.3,25.2C26.6,25 26.9,24.9 27.3,24.9C27.7,24.9 28,25 28.2,25.3C28.4,25.5 28.5,25.9 28.5,26.3L28.5,26.6C28.5,26.7 28.5,26.8 28.4,27C28.3,27.7 28,28.3 27.7,28.6C27.4,29 26.9,29.1 26.4,29.1C26,29.1 25.7,29 25.5,28.8C25.3,28.6 25.2,28.2 25.2,27.8L25.2,27.5C25.2,27.4 25.2,27.3 25.3,27.2C25.3,27 25.4,26.9 25.4,26.8C24.9,27.6 24.2,28.4 23.5,29.1C23.6,29.5 23.8,29.8 24.1,30.1C24.6,30.6 25.3,30.8 26.1,30.8C27.1,30.8 28,30.5 28.8,29.8C29.5,29.2 30,28.3 30.2,27.2C30.2,27 30.3,26.9 30.3,26.7L30.3,26.2C30.3,25.2 30.1,24.6 29.6,24.1Z" style="fill:rgb(165,0,47);fill-rule:nonzero;"/>
            </g>
        </g>
    </g>
</svg>
