<?xml version="1.0" encoding="UTF-8" standalone="no"?>
<!DOCTYPE svg PUBLIC "-//W3C//DTD SVG 1.1//EN" "http://www.w3.org/Graphics/SVG/1.1/DTD/svg11.dtd">
<svg width="100%" height="100%" viewBox="0 0 122 113" version="1.1" xmlns="http://www.w3.org/2000/svg" xmlns:xlink="http://www.w3.org/1999/xlink" xml:space="preserve" xmlns:serif="http://www.serif.com/" style="fill-rule:evenodd;clip-rule:evenodd;stroke-linejoin:round;stroke-miterlimit:2;">
    <g transform="matrix(1,0,0,1,-45.598,-19.692)">
        <path d="M92.463,77.081C91.963,77.081 91.557,76.813 91.557,76.484L91.557,69.324C91.557,68.994 91.963,68.727 92.463,68.727L119.436,68.727C119.936,68.727 120.342,68.994 120.342,69.324L120.342,76.484C120.342,76.813 119.936,77.081 119.436,77.081L119.093,77.081C116.586,75.66 111.641,74.694 105.95,74.694C100.258,74.694 95.313,75.66 92.806,77.081L92.463,77.081ZM124.592,78.231C124.639,78.447 124.659,78.88 124.554,79.437L122.739,89.004L121.588,89.004L121.168,79.523C121.14,78.897 121.25,78.426 121.339,78.231L121.467,78.231L121.467,80.24C121.467,80.469 121.599,80.646 121.761,80.646L123.331,80.646C123.494,80.646 123.667,80.469 123.721,80.24L124.191,78.231L124.592,78.231ZM87.385,78.231L87.827,78.231L88.297,80.24C88.35,80.469 88.524,80.646 88.686,80.646L90.257,80.646C90.419,80.646 90.551,80.469 90.551,80.24L90.551,78.231L90.639,78.231C90.727,78.426 90.837,78.897 90.81,79.523L90.389,89.004L89.239,89.004L87.424,79.437C87.318,78.88 87.339,78.447 87.385,78.231ZM125.813,68.368L122.153,68.368C121.774,68.368 121.467,69.273 121.467,70.29L121.467,77.627L121.165,77.627C120.786,77.627 120.519,78.532 120.564,79.549L121.006,89.5C121.012,89.635 121.066,89.746 121.141,89.82C118.627,95.726 112.774,99.869 105.95,99.869C99.145,99.869 93.305,95.749 90.78,89.87C90.886,89.807 90.964,89.668 90.972,89.5L91.413,79.549C91.458,78.532 91.191,77.627 90.812,77.627L90.551,77.627L90.551,70.29C90.551,69.273 90.244,68.368 89.865,68.368L86.205,68.368C85.826,68.368 85.731,69.273 85.969,70.29L87.685,77.627L87.152,77.627C86.773,77.627 86.638,78.532 86.831,79.549L88.718,89.5C88.752,89.684 88.867,89.829 88.996,89.881C91.616,96.693 98.215,101.529 105.95,101.529C113.676,101.529 120.269,96.703 122.895,89.904C123.055,89.899 123.217,89.725 123.26,89.5L125.147,79.549C125.34,78.532 125.204,77.627 124.825,77.627L124.332,77.627L126.049,70.29C126.287,69.273 126.192,68.368 125.813,68.368ZM96.313,44.563C96.313,44.468 96.404,44.362 96.523,44.325L99.726,43.322C100.203,43.173 100.641,43.212 100.641,43.429L100.641,45.047C100.641,45.264 100.203,45.44 99.726,45.44L96.523,45.44C96.404,45.44 96.313,45.363 96.313,45.268L96.313,44.563ZM110.504,43.429C110.504,43.212 110.942,43.173 111.418,43.322L114.622,44.325C114.741,44.362 114.832,44.468 114.832,44.563L114.832,45.268C114.832,45.363 114.741,45.44 114.622,45.44L111.418,45.44C110.942,45.44 110.504,45.264 110.504,45.047L110.504,43.429ZM96.313,47.207C96.313,46.989 96.404,46.812 96.523,46.812L99.726,46.812C100.203,46.812 100.641,47.217 100.641,47.718L100.641,51.441C100.641,51.942 100.203,52.031 99.726,51.688L96.523,49.379C96.404,49.293 96.313,49.05 96.313,48.832L96.313,47.207ZM110.504,47.718C110.504,47.217 110.942,46.812 111.418,46.812L114.622,46.812C114.741,46.812 114.832,46.989 114.832,47.207L114.832,48.832C114.832,49.05 114.741,49.293 114.622,49.379L111.418,51.688C110.942,52.031 110.504,51.942 110.504,51.441L110.504,47.718ZM87.703,55.184L87.771,55.2C87.903,55.231 101.022,58.322 105.324,58.322C109.688,58.322 122.989,55.231 123.123,55.2L123.191,55.184L123.26,55.184C123.468,55.184 123.671,55.205 123.87,55.236C121.706,48.78 117.75,43.664 112.861,41.062C112.529,41.451 112.036,41.698 111.485,41.698L99.408,41.698C98.874,41.698 98.396,41.466 98.064,41.099C93.211,43.709 89.284,48.801 87.129,55.22C87.294,55.198 87.461,55.184 87.632,55.184L87.703,55.184ZM124.711,63.99C124.711,64.534 123.551,64.975 122.411,64.975L117.864,64.975C117.629,64.975 117.457,64.817 117.457,64.623L117.457,63.426C117.457,63.231 117.629,62.993 117.864,62.882L122.411,60.743C123.551,60.206 124.711,60.101 124.711,60.645L124.711,63.99ZM93.93,64.623C93.93,64.817 93.758,64.975 93.524,64.975L88.977,64.975C87.837,64.975 86.676,64.534 86.676,63.99L86.676,60.645C86.676,60.101 87.837,60.206 88.977,60.743L93.524,62.882C93.758,62.993 93.93,63.231 93.93,63.426L93.93,64.623ZM124.139,56.492C124.139,56.492 110.023,59.631 105.318,59.631C100.677,59.631 86.754,56.492 86.754,56.492C84.829,56.492 83.269,57.979 83.269,59.813L83.269,64.241C83.269,66.076 84.829,67.563 86.754,67.563L124.139,67.563C126.063,67.563 127.624,66.076 127.624,64.241L127.624,59.813C127.624,57.979 126.063,56.492 124.139,56.492Z" style="fill-rule:nonzero;"/>
        <path d="M76.638,120.866L74.858,131.79C76.877,132.178 78.894,132.463 80.852,132.565C81.553,132.601 82.254,132.622 82.959,132.619L84.577,122.692C82.072,122.315 79.377,121.677 76.638,120.866ZM101.265,116.429L95.963,121.28C93.851,122.985 90.267,123.358 86.012,122.881L84.433,132.567C89.111,132.277 94.079,130.562 100.498,124.253L100.509,124.254L105.159,119.995L101.265,116.429ZM67.466,117.606L65.562,129.294C68.088,130.143 70.75,130.922 73.437,131.51L75.241,120.439C72.623,119.613 69.992,118.645 67.466,117.606ZM111.023,114.623L166.063,64.209C167.904,62.575 165.369,57.826 162.622,60.274L107.13,111.061L111.023,114.623ZM53.978,110.718C50.767,108.566 48.097,110.235 46.579,113.79C45.061,117.345 46.711,121.457 50.266,122.975C51.015,123.295 52.735,124.127 55.067,125.165L57.109,112.633C55.941,111.972 54.886,111.327 53.978,110.718ZM58.454,113.374L56.434,125.766C58.653,126.728 61.292,127.805 64.173,128.821L66.094,117.032C63.322,115.846 60.718,114.593 58.454,113.374ZM146.194,117.032L148.115,128.821C150.996,127.805 153.635,126.728 155.854,125.766L153.834,113.374C151.57,114.593 148.966,115.846 146.194,117.032ZM137.047,120.439L138.85,131.51C141.538,130.922 144.2,130.143 146.726,129.294L144.822,117.606C142.296,118.645 139.665,119.613 137.047,120.439ZM165.709,113.79C164.191,110.235 161.521,108.566 158.31,110.718C157.402,111.327 156.347,111.972 155.179,112.633L157.221,125.165C159.553,124.127 161.273,123.295 162.022,122.975C165.576,121.457 167.227,117.345 165.709,113.79ZM127.711,122.692L129.328,132.619C130.034,132.622 130.735,132.601 131.436,132.565C133.394,132.463 135.411,132.178 137.43,131.79L135.65,120.866C132.911,121.677 130.216,122.315 127.711,122.692ZM126.276,122.881L127.855,132.567C123.177,132.277 118.209,130.562 111.79,124.253C111.789,124.253 111.779,124.254 111.779,124.254L46.225,64.209C44.384,62.575 46.919,57.826 49.666,60.274L116.325,121.28C118.437,122.985 122.021,123.358 126.276,122.881Z" style="fill-rule:nonzero;"/>
        <path d="M151.775,48.407L141.787,58.394L140.891,57.022C138.521,53.397 135.659,50.216 132.427,47.538L129.039,50.926C135.629,55.011 141.553,60.755 146.525,67.775L146.568,55.506L156.542,55.436C155.065,52.977 153.471,50.632 151.775,48.407ZM70.696,56.246L69.79,57.568L59.858,47.636C58.17,49.792 56.577,52.062 55.097,54.446L65.162,54.411L65.203,66.894C70.249,59.991 76.234,54.376 82.872,50.433C81.71,49.271 80.548,48.109 79.386,46.947C76.081,49.557 73.142,52.678 70.696,56.246ZM105.537,36.527C90.607,36.527 77.446,44.044 69.598,55.493L57.545,43.44C68.582,29.009 85.965,19.692 105.537,19.692C125.45,19.692 143.093,29.34 154.094,44.205L142.005,56.294C134.23,44.396 120.811,36.527 105.537,36.527Z" style="fill-rule:nonzero;"/>
        <path d="M53.615,76.652L55.286,81.795L60.693,81.795L56.318,84.973L57.989,90.116L53.615,86.937L49.24,90.116L50.911,84.973L46.537,81.795L51.944,81.795L53.615,76.652Z" style="fill-rule:nonzero;"/>
        <path d="M157.458,76.652L159.129,81.795L164.536,81.795L160.162,84.973L161.833,90.116L157.458,86.937L153.084,90.116L154.755,84.973L150.38,81.795L155.787,81.795L157.458,76.652Z" style="fill-rule:nonzero;"/>
        <path d="M152.799,96.664L154.046,100.503L158.083,100.503L154.817,102.876L156.064,106.715L152.799,104.342L149.533,106.715L150.78,102.876L147.515,100.503L151.551,100.503L152.799,96.664Z" style="fill-rule:nonzero;"/>
        <path d="M58.94,96.664L60.187,100.503L64.224,100.503L60.958,102.876L62.206,106.715L58.94,104.342L55.674,106.715L56.922,102.876L53.656,100.503L57.693,100.503L58.94,96.664Z" style="fill-rule:nonzero;"/>
    </g>
</svg>
