<?xml version="1.0" encoding="UTF-8" standalone="no"?>
<!DOCTYPE svg PUBLIC "-//W3C//DTD SVG 1.1//EN" "http://www.w3.org/Graphics/SVG/1.1/DTD/svg11.dtd">
<svg width="100%" height="100%" viewBox="0 0 750 117" version="1.1" xmlns="http://www.w3.org/2000/svg" xmlns:xlink="http://www.w3.org/1999/xlink" xml:space="preserve" xmlns:serif="http://www.serif.com/" style="fill-rule:evenodd;clip-rule:evenodd;stroke-linejoin:round;stroke-miterlimit:2;">
    <g transform="matrix(1,0,0,1,-41.7,-245.9)">
        <g>
            <g>
                <path d="M117.1,359.1L46.1,359.1C43.8,359.1 41.9,357.2 41.9,354.9C41.9,352.6 43.8,350.7 46.1,350.7L117.1,350.7C119.4,350.7 121.3,352.6 121.3,354.9C121.3,357.2 119.4,359.1 117.1,359.1Z" style="fill:rgb(0,160,222);fill-rule:nonzero;"/>
            </g>
        </g>
        <g>
            <path d="M121.3,252.3C121.3,253.5 120.4,254.4 119.2,254.4L115,254.4C113.9,254.4 112.9,253.5 112.9,252.3L112.9,248C112.9,246.8 113.8,245.9 115,245.9L119.3,245.9C120.5,245.9 121.4,246.8 121.4,248L121.4,252.3L121.3,252.3Z" style="fill:rgb(0,160,222);fill-rule:nonzero;"/>
        </g>
        <g>
            <path d="M50.2,252.3C50.2,253.4 49.3,254.4 48.1,254.4L43.8,254.4C42.7,254.4 41.7,253.5 41.7,252.3L41.7,248C41.7,246.9 42.6,245.9 43.8,245.9L48.1,245.9C49.2,245.9 50.2,246.8 50.2,248L50.2,252.3Z" style="fill:rgb(0,160,222);fill-rule:nonzero;"/>
        </g>
        <g>
            <path d="M46,313.6C43.7,313.6 41.8,311.7 41.8,309.4L41.8,261.8C41.8,259.5 43.7,257.6 46,257.6C48.3,257.6 50.2,259.5 50.2,261.8L50.2,309.4C50.2,311.7 48.4,313.6 46,313.6Z" style="fill:rgb(0,160,222);fill-rule:nonzero;"/>
        </g>
        <g>
            <path d="M117.1,313.6C114.8,313.6 112.9,311.7 112.9,309.4L112.9,261.8C112.9,259.5 114.8,257.6 117.1,257.6C119.4,257.6 121.3,259.5 121.3,261.8L121.3,309.4C121.3,311.7 119.5,313.6 117.1,313.6Z" style="fill:rgb(0,160,222);fill-rule:nonzero;"/>
        </g>
        <g>
            <path d="M105.3,254.4L57.7,254.4C55.4,254.4 53.5,252.5 53.5,250.2C53.5,247.9 55.4,246 57.7,246L105.3,246C107.6,246 109.5,247.9 109.5,250.2C109.6,252.5 107.7,254.4 105.3,254.4Z" style="fill:rgb(0,160,222);fill-rule:nonzero;"/>
        </g>
        <g>
            <path d="M121.3,318.9C121.3,317.8 120.4,316.8 119.2,316.8L115,316.8C113.9,316.8 112.9,317.7 112.9,318.9L112.9,323.2C112.9,324.3 113.8,325.3 115,325.3L119.3,325.3C120.4,325.3 121.4,324.4 121.4,323.2L121.4,318.9L121.3,318.9Z" style="fill:rgb(0,160,222);fill-rule:nonzero;"/>
        </g>
        <g>
            <path d="M50.3,318.9C50.3,317.7 49.4,316.8 48.2,316.8L43.9,316.8C42.8,316.8 41.8,317.7 41.8,318.9L41.8,323.2C41.8,324.4 42.7,325.3 43.9,325.3L48.2,325.3C49.3,325.3 50.3,324.4 50.3,323.2L50.3,318.9Z" style="fill:rgb(0,160,222);fill-rule:nonzero;"/>
        </g>
        <g>
            <path d="M105.3,316.8L57.7,316.8C55.4,316.8 53.5,318.7 53.5,321C53.5,323.3 55.4,325.2 57.7,325.2L105.3,325.2C107.6,325.2 109.5,323.3 109.5,321C109.6,318.7 107.7,316.8 105.3,316.8Z" style="fill:rgb(0,160,222);fill-rule:nonzero;"/>
        </g>
        <g>
            <g>
                <path d="M105.6,313.4C104.6,313.4 103.6,313 102.8,312.3L54.7,264.4C53.1,262.8 53.1,260.3 54.6,258.7C56.1,257.1 58.6,257.1 60.2,258.6L108.3,306.5C109.9,308.1 109.9,310.6 108.4,312.2C107.7,313 106.6,313.4 105.6,313.4Z" style="fill:rgb(0,160,222);fill-rule:nonzero;"/>
            </g>
            <g>
                <path d="M57.5,313.4C56.5,313.4 55.4,313 54.7,312.2C53.2,310.6 53.2,308.1 54.8,306.5L102.9,258.6C104.5,257 107,257.1 108.5,258.7C110,260.3 110,262.8 108.4,264.4L60.3,312.3C59.5,313 58.5,313.4 57.5,313.4Z" style="fill:rgb(0,160,222);fill-rule:nonzero;"/>
            </g>
        </g>
        <g>
            <g>
                <path d="M187.1,279.1L175.5,279.1L175.9,279.2L185.7,279.2L187.1,279.1Z" style="fill:rgb(0,160,222);fill-rule:nonzero;"/>
            </g>
        </g>
        <g>
            <g>
                <path d="M430.9,324.8L439.4,296.4L447.9,324.8L459.7,324.8L445.3,281.5L445,280.6L433.8,280.6L433.5,281.5L419.1,324.8L430.9,324.8Z" style="fill:rgb(0,160,222);fill-rule:nonzero;"/>
            </g>
        </g>
        <g>
            <g>
                <path d="M364.6,280.4L351.4,280.4L336.4,295.1L336.4,280.4L325.3,280.4L325.3,324.7L336.4,324.7L336.4,310.3L339.4,307L354,324.7L367.7,324.7L346.9,298.5L364.6,280.4Z" style="fill:rgb(0,160,222);fill-rule:nonzero;"/>
            </g>
        </g>
        <g>
            <g>
                <path d="M251.5,280.4L251.5,284.6C251.5,284.5 251.4,284.5 251.4,284.4C247.2,279.2 239.6,279.2 239.5,279.2L239.1,279.2C228.8,279.1 221,286 218.1,295.4C217.4,297.6 217,300 217,302.5L217,303.4C217.5,315.7 227.3,325.5 239.4,325.8C242.5,325.8 247,325.1 249.6,322.6C249.6,322.6 250.6,321.7 251.4,320.5L251.4,324.7L263.1,324.7L263.1,280.5L251.5,280.5L251.5,280.4ZM239.6,279.2L239.6,279.2ZM251.5,308C251.4,308.2 251.3,308.5 251.2,308.7C249,312.8 244.8,315.7 239.9,315.7C237,315.7 234.2,314.7 232.1,312.9C229.5,310.6 227.8,307.3 227.6,303.5L227.6,302.7C227.6,300.4 228.2,298.2 229.2,296.3C231.4,292.2 235.6,289.3 240.5,289.3C243.4,289.3 246.2,290.3 248.3,292.1C249.7,293.3 250.8,294.9 251.6,296.6C252.3,298.1 252.7,299.7 252.8,301.5L252.8,302.3C252.7,304.3 252.3,306.2 251.5,308Z" style="fill:rgb(0,160,222);fill-rule:nonzero;"/>
            </g>
        </g>
        <g>
            <g>
                <path d="M400.3,280.7L400.3,284.9C400.3,284.8 400.2,284.8 400.2,284.7C396,279.6 388.4,279.5 388.4,279.5L388,279.5C377.8,279.4 370,286.3 367.1,295.6C366.4,297.8 366,300.2 366,302.6L366,303.5C366.5,315.8 376.3,325.6 388.3,325.8C391.4,325.8 395.8,325.1 398.5,322.6C398.5,322.6 399.5,321.7 400.3,320.5L400.3,324.7L411.9,324.7L411.9,280.7L400.3,280.7ZM388.5,279.6L388.5,279.6ZM400.3,308.2C400.2,308.4 400.1,308.7 400,308.9C397.8,313 393.6,315.8 388.7,315.8C385.8,315.8 383.1,314.8 380.9,313C378.3,310.7 376.6,307.4 376.4,303.7L376.4,302.9C376.4,300.6 377,298.4 378,296.5C380.2,292.4 384.4,289.6 389.2,289.6C392.1,289.6 394.8,290.6 397,292.4C398.4,293.6 399.5,295.2 400.3,296.9C401,298.4 401.4,300 401.5,301.7L401.5,302.5C401.5,304.5 401.1,306.5 400.3,308.2Z" style="fill:rgb(0,160,222);fill-rule:nonzero;"/>
            </g>
        </g>
        <path d="M210.2,300.9C209.9,293.8 206.2,287.5 200.5,283.5C194.8,278.8 186.3,279 186.3,279L174.7,279L174.7,265L202,265L202,253.9L163.6,253.9L163.6,324.5L186.7,324.5C187.1,324.5 187.6,324.5 188.3,324.4C198.1,323.7 206.3,317.3 209.2,308.6C209.9,306.4 210.3,304.1 210.3,301.7C210.3,301.5 210.3,301.2 210.2,300.9ZM196,307.4C194.2,310.4 191,312.6 187.3,313.4L174.7,313.4L174.7,290L184.2,289.9L187.2,289.9C187.5,290 187.9,290 188.2,290.1C190,290.5 191.6,291.2 193,292.2C195.7,294.3 197.5,297.3 197.7,300.7L197.7,301.4C197.7,303.7 197.1,305.7 196,307.4Z" style="fill:rgb(0,160,222);fill-rule:nonzero;"/>
        <path d="M316.1,323.2C316.1,323.1 316.1,323 316,322.9C316,322.8 316,322.7 315.9,322.6L315.9,322.4C315.5,320 315.4,315.4 315.3,311.4L315.3,279.8L303.6,279.8L303.6,303.3C303.5,305.1 303.1,308.4 301.7,310.5C299.8,313.1 296.8,314.8 293.5,314.8L292.6,314.8C290.8,314.6 289.2,314 287.8,313.1C285.9,311.8 284.4,309.8 283.7,307.5L283.7,307.4C283.4,306.6 283.2,304.8 283.1,303.6C283,303 283,302.5 283,302.5C282.4,293.6 283,279.9 283,279.9L282.7,279.8L271.7,279.8C271.7,284.1 271.8,300.4 271.7,303.2C271.8,305.8 272.1,310.1 273.5,313.9C274.1,315.4 274.9,317 275.9,318.4C276.1,318.7 276.3,319 276.6,319.2C276.9,319.5 277.2,319.8 277.4,320.1C278.8,321.5 280.5,322.8 282.6,323.7L282.7,323.7C283.6,324.1 286.4,325.2 290.8,325.2C291.4,325.2 291.9,325.2 292.3,325.1C292.3,325.1 299.9,325.2 304.3,319C304.4,320.7 304.7,323.2 305.5,324.1L316.3,324.1C316.3,323.8 316.2,323.5 316.1,323.2Z" style="fill:rgb(0,160,222);fill-rule:nonzero;"/>
        <g>
            <g>
                <g>
                    <path d="M699.1,305.8C699.1,305.8 699.1,305.7 699.1,305.8C699.1,305.7 699.1,305.8 699.1,305.8Z" style="fill:white;fill-rule:nonzero;"/>
                </g>
            </g>
            <path d="M781.4,309.4C779.2,313.5 775.1,316.1 770.6,316.1C764,316.1 758.6,310.6 758.2,303.6L758.2,302.8C758.2,300.6 758.7,298.3 759.7,296.4C761.9,292.1 766.1,289.5 770.6,289.5C775.1,289.5 779.3,292.1 781.5,296.3L781.7,296.7L791.5,292.7L791.3,292.3C787.5,283.7 779.2,278.2 770.2,278.2C760,278.2 751.1,285 748,295.2C747.3,297.6 746.9,300.1 746.9,302.6L746.9,303.5C747.4,316.6 757.6,326.9 770.2,326.9C779.1,326.9 787.1,321.7 791.1,313.4L791.3,313L781.7,309.1L781.4,309.4Z" style="fill:rgb(61,56,52);fill-rule:nonzero;"/>
            <path d="M580.5,282.6C580.1,282.3 579.7,282 579.2,281.7C579.1,281.6 579,281.6 578.9,281.5C578.6,281.3 578.4,281.2 578.1,281L577.7,280.8C577.2,280.5 576.7,280.3 576.3,280.1C576.1,280 576,280 575.8,279.9C575.5,279.8 575.3,279.7 575,279.6C574.8,279.5 574.7,279.5 574.5,279.4L574.4,279.4C574,279.3 573.6,279.1 573.3,279C573.1,278.9 572.8,278.9 572.6,278.8C572.4,278.7 572.1,278.7 571.9,278.6C571.6,278.5 571.3,278.5 570.9,278.4C570.7,278.4 570.4,278.3 570.2,278.3C569.8,278.2 569.5,278.2 569.1,278.2L568.6,278.2C568.1,278.2 567.7,278.1 567.2,278.1L567.1,278.1C566.5,278.1 565.9,278.1 565.3,278.2L565,278.2C564.5,278.3 564,278.3 563.5,278.4L563.1,278.5C562.6,278.6 562.1,278.7 561.7,278.8L561.4,278.9C560.9,279 560.4,279.2 559.9,279.3L559.7,279.4C559.2,279.6 558.7,279.8 558.1,280.1C553,282.4 548.9,286.5 546.4,291.6L546.2,292C545.7,293 545.4,294 545,295.1C544.3,297.5 543.9,300 543.9,302.5L543.9,303.4C544,305.4 544.3,307.5 544.8,309.4L544.9,309.9C545.2,310.8 545.5,311.7 546,312.8C546.1,313 546.2,313.1 546.2,313.3L546.4,313.7C546.9,314.6 547.4,315.6 548,316.4L548.2,316.6C548.8,317.4 549.4,318.2 550.1,319L550.3,319.2C550.5,319.4 550.7,319.7 551,319.9L551.1,320C551.5,320.4 552,320.9 552.5,321.3C552.6,321.4 552.7,321.5 552.8,321.5C553,321.7 553.3,321.9 553.5,322.1L553.7,322.2C554.2,322.5 554.6,322.9 555.1,323.2L555.4,323.4C555.7,323.6 555.9,323.7 556.2,323.9L556.5,324.1C557,324.3 557.4,324.6 557.9,324.8C558.1,324.9 558.2,324.9 558.4,325C558.7,325.1 558.9,325.2 559.2,325.3C559.4,325.4 559.6,325.4 559.8,325.5C560.2,325.6 560.6,325.8 560.9,325.9C561.1,326 561.4,326 561.6,326.1C561.8,326.2 562.1,326.2 562.3,326.3C562.6,326.4 562.9,326.4 563.3,326.5C563.5,326.5 563.8,326.6 564,326.6C564.4,326.7 564.7,326.7 565.1,326.7L565.6,326.7C566.1,326.7 566.5,326.8 567.1,326.8C567.7,326.8 568.3,326.8 568.9,326.7L569.2,326.7C569.7,326.7 570.2,326.6 570.7,326.5L571.1,326.4C571.6,326.3 572.1,326.2 572.5,326.1L572.8,326C573.3,325.9 573.8,325.7 574.3,325.6L574.6,325.5C575.1,325.3 575.7,325.1 576.1,324.9L576.2,324.9C581.3,322.6 585.4,318.6 587.9,313.4L588.1,313L577.5,308.6L577.3,309C575.1,313.1 570.9,315.6 566.5,315.6C564.8,315.6 563.2,315.3 561.7,314.6C557.9,312.5 555.9,310 555.3,306.6L588.8,306.6L588.8,306.2C589.3,302.5 589.8,289.6 580.5,282.6ZM578.3,297.8L556.1,297.8C556.3,297.3 556.5,296.9 556.7,296.4C558.9,292.1 563.1,289.5 567.6,289.5C569.3,289.5 570.9,289.8 572.4,290.5C575.1,292 577.3,294.6 578.3,297.8Z" style="fill:rgb(61,56,52);fill-rule:nonzero;"/>
            <path d="M528.7,302.7L528.5,303.1C524.7,310.1 518.3,314.2 511.3,314.2C500.1,314.2 491,303.5 491,290.3C491,277.1 500.1,266.4 511.3,266.4C519.5,266.4 526.9,272.2 530,281.1L530.2,281.5L541.9,276.5L541.7,276.1C536.5,262.4 524.6,253.6 511.2,253.6C493,253.6 478.2,270 478.2,290.2C478.2,310.4 493,326.8 511.2,326.8C522.8,326.8 533.7,319.9 539.7,308.7L540.1,308L540.1,307.9L528.7,302.7Z" style="fill:rgb(61,56,52);fill-rule:nonzero;"/>
            <path d="M641.9,295.7C638.7,285.4 630.1,278.7 620,278.7L619.2,278.7C619.1,278.7 611.9,278.8 607.4,283.5L607.4,279.9L594.4,279.9L594.4,351.9L607.4,351.9L607.4,323.1C608,323.8 608.5,324.2 608.5,324.2L608.6,324.2C611.7,327.1 616.6,327.6 619.4,327.6C632.2,327.4 642.5,317 643,304.1L643,303.2C643.1,300.6 642.7,298.1 641.9,295.7ZM610.7,292.7C613,290.9 615.7,289.9 618.5,289.9C623.2,289.9 627.5,292.6 629.8,296.9C630.8,298.9 631.4,301.1 631.4,303.4L631.4,304.2C631.2,307.8 629.6,311.2 626.9,313.6C624.6,315.4 621.9,316.4 619.1,316.4C614.4,316.4 610.1,313.7 607.8,309.4C607.7,309.2 607.6,308.9 607.5,308.7C606.7,306.9 606.3,305 606.3,302.9L606.3,302.1C606.4,300.4 606.8,298.8 607.5,297.2C608.2,295.5 609.3,294 610.7,292.7Z" style="fill:rgb(61,56,52);fill-rule:nonzero;"/>
            <path d="M691.6,310.4L691.6,309.9C691.5,307 690.4,304.6 688.3,302.5L688.2,302.4C687.4,301.6 686.5,300.9 685.4,300.1C685.6,299.8 685.9,299.4 686.1,299.1C688.3,297.2 689.5,294.6 689.5,291.8C689.5,286.5 684.2,281.1 678.1,280.2C676.3,280.1 675,280 674.3,280L673.7,280L649,280.1L649,325.2L661.1,325.2L667.1,325.1L676.4,325.1C683,324.6 688.8,320.5 690.8,314.9C691.3,313.4 691.6,311.9 691.6,310.4ZM679,311.8C678.9,313.8 677.2,315.3 675.7,315.7C675.5,315.8 675.2,315.8 674.9,315.9C673.8,316.1 672.5,316.2 671.6,316.2L661.7,316.2L661.7,305.6L671.2,305.6C671.6,305.6 673.8,305.6 675.3,306L675.4,306C675.5,306 675.5,306 675.6,306.1C675.8,306.1 675.9,306.2 676.1,306.3L676.2,306.4C676.3,306.5 676.4,306.5 676.6,306.6C677.9,307.4 678.8,308.7 678.9,310.1L678.9,311C678.9,311 679.1,311.7 679,311.8ZM676,296C675,296.4 674.4,296.5 674.2,296.5L661.6,296.5L661.6,289L674.3,289C674.4,289 674.9,289.1 675.5,289.4C676.8,290.1 677.7,291.4 677.7,292.5C677.8,294.3 677.3,295.3 676,296Z" style="fill:rgb(61,56,52);fill-rule:nonzero;"/>
            <path d="M742.9,324.8C742.8,324.6 742.7,324.3 742.7,324C742.7,323.9 742.7,323.8 742.6,323.7L742.5,323.2C742.1,320.7 742,315.9 741.9,312.3L741.9,280.2L729.3,280.2L729.3,304.2C729.2,306 728.8,309.2 727.5,311.2C725.7,313.7 722.7,315.3 719.6,315.3L718.8,315.3C717.1,315.2 715.6,314.6 714.2,313.7C712.4,312.4 711,310.5 710.3,308.4L710.3,308.3C710.1,307.7 709.9,306.4 709.7,304.7L709.7,304.6C709.7,304.2 709.6,303.9 709.6,303.7L709.6,303.5C709,294.7 709.6,281.1 709.6,280.9L709.6,280.3L697.3,280.3L697.3,280.8C697.3,288.5 697.4,301.7 697.3,304.2C697.4,307.1 697.8,311.2 699.1,315C699.8,316.7 700.7,318.3 701.6,319.6C701.8,319.9 702,320.2 702.3,320.5C702.6,320.8 702.9,321.1 703.1,321.4C704.6,323 706.5,324.2 708.5,325.1L708.6,325.1C709.6,325.6 712.5,326.6 716.7,326.6L716.9,326.6C717.5,326.6 718,326.6 718.4,326.5C718.7,326.5 725.5,326.4 730.1,321.1C730.3,323.2 730.7,324.6 731.4,325.3L731.5,325.4L743.1,325.4L742.9,324.8Z" style="fill:rgb(61,56,52);fill-rule:nonzero;"/>
        </g>
        <path d="M300.6,267.8C299.1,269.7 296.7,271.2 293.9,271.3C290.8,271.4 288.1,269.9 286.5,267.8L280.6,271C282.7,276.1 288.1,279.7 294.2,279.4C299.8,279.2 304.6,275.8 306.6,271.1L300.6,267.8Z" style="fill:rgb(0,160,222);fill-rule:nonzero;"/>
        <path d="M173.4,350.1L169.9,350.1L169.9,358.9L166.6,358.9L166.6,350.1L163.2,350.1L163.2,347.3L173.4,347.3L173.4,350.1Z" style="fill:rgb(0,160,222);fill-rule:nonzero;"/>
        <path d="M180.5,347.3L183.8,347.3L183.8,349C184.6,347.9 185.7,347.1 187.4,347.1C190.1,347.1 192.7,349.2 192.7,353.1C192.7,357 190.2,359.1 187.4,359.1C185.6,359.1 184.6,358.3 183.8,357.4L183.8,362.4L180.5,362.4L180.5,347.3ZM189.4,353.1C189.4,351.2 188.1,349.9 186.6,349.9C185.1,349.9 183.8,351.2 183.8,353.1C183.8,355 185.1,356.3 186.6,356.3C188.1,356.3 189.4,355.1 189.4,353.1Z" style="fill:rgb(0,160,222);fill-rule:nonzero;"/>
        <path d="M199.8,355.5C199.8,353 201.7,351.8 204.5,351.8C205.7,351.8 206.5,352 207.3,352.3L207.3,352.1C207.3,350.7 206.5,350 204.8,350C203.5,350 202.7,350.2 201.6,350.6L200.8,348.1C202.1,347.5 203.3,347.2 205.3,347.2C207.1,347.2 208.4,347.7 209.2,348.5C210.1,349.4 210.5,350.6 210.5,352.2L210.5,358.9L207.3,358.9L207.3,357.6C206.5,358.5 205.4,359.1 203.8,359.1C201.6,359.1 199.8,357.9 199.8,355.5ZM207.3,354.8L207.3,354.2C206.7,353.9 206,353.8 205.2,353.8C203.8,353.8 202.9,354.4 202.9,355.4C202.9,356.3 203.6,356.8 204.7,356.8C206.3,356.8 207.3,356 207.3,354.8Z" style="fill:rgb(0,160,222);fill-rule:nonzero;"/>
        <path d="M229.3,358.9L226,358.9L226,354.5L222,354.5L222,358.9L218.7,358.9L218.7,347.3L222,347.3L222,351.8L226,351.8L226,347.3L229.3,347.3L229.3,358.9Z" style="fill:rgb(0,160,222);fill-rule:nonzero;"/>
        <path d="M237.1,353.1C237.1,349.8 239.6,347.1 243.2,347.1C245.4,347.1 246.7,347.9 247.8,349.1L245.9,351C245.2,350.3 244.5,349.9 243.2,349.9C241.6,349.9 240.4,351.3 240.4,353.1C240.4,354.9 241.5,356.3 243.3,356.3C244.4,356.3 245.2,355.8 246,355.1L247.9,357C246.8,358.2 245.5,359.1 243.2,359.1C239.6,359.2 237.1,356.5 237.1,353.1Z" style="fill:rgb(0,160,222);fill-rule:nonzero;"/>
        <path d="M265.9,358.9L262.6,358.9L262.6,350.1L258.6,350.1L258.6,358.9L255.3,358.9L255.3,347.3L265.8,347.3L265.8,358.9L265.9,358.9Z" style="fill:rgb(0,160,222);fill-rule:nonzero;"/>
        <path d="M273.7,353.1C273.7,349.8 276.4,347.1 280,347.1C283.6,347.1 286.2,349.8 286.2,353.1C286.2,356.4 283.5,359.1 279.9,359.1C276.3,359.2 273.7,356.5 273.7,353.1ZM283,353.1C283,351.4 281.8,349.9 280,349.9C278.1,349.9 277,351.3 277,353.1C277,354.8 278.2,356.3 280,356.3C281.9,356.3 283,354.9 283,353.1Z" style="fill:rgb(0,160,222);fill-rule:nonzero;"/>
        <path d="M294,347.3L297.3,347.3L297.3,349C298.1,347.9 299.2,347.1 300.9,347.1C303.6,347.1 306.2,349.2 306.2,353.1C306.2,357 303.7,359.1 300.9,359.1C299.1,359.1 298.1,358.3 297.3,357.4L297.3,362.4L294,362.4L294,347.3ZM302.9,353.1C302.9,351.2 301.6,349.9 300.1,349.9C298.6,349.9 297.3,351.2 297.3,353.1C297.3,355 298.6,356.3 300.1,356.3C301.6,356.3 302.9,355.1 302.9,353.1Z" style="fill:rgb(0,160,222);fill-rule:nonzero;"/>
        <path d="M322.7,350.1L319.2,350.1L319.2,358.9L315.9,358.9L315.9,350.1L312.5,350.1L312.5,347.3L322.7,347.3L322.7,350.1Z" style="fill:rgb(0,160,222);fill-rule:nonzero;"/>
        <path d="M340.4,358.9L337.1,358.9L337.1,354.5L333.1,354.5L333.1,358.9L329.8,358.9L329.8,347.3L333.1,347.3L333.1,351.8L337.1,351.8L337.1,347.3L340.4,347.3L340.4,358.9Z" style="fill:rgb(0,160,222);fill-rule:nonzero;"/>
        <path d="M348.1,355.5C348.1,353 350,351.8 352.8,351.8C354,351.8 354.8,352 355.6,352.3L355.6,352.1C355.6,350.7 354.8,350 353.1,350C351.8,350 351,350.2 349.9,350.6L349.1,348.1C350.4,347.5 351.6,347.2 353.6,347.2C355.4,347.2 356.7,347.7 357.5,348.5C358.4,349.4 358.8,350.6 358.8,352.2L358.8,358.9L355.6,358.9L355.6,357.6C354.8,358.5 353.7,359.1 352.1,359.1C349.9,359.1 348.1,357.9 348.1,355.5ZM355.6,354.8L355.6,354.2C355,353.9 354.3,353.8 353.5,353.8C352.1,353.8 351.2,354.4 351.2,355.4C351.2,356.3 351.9,356.8 353,356.8C354.6,356.8 355.6,356 355.6,354.8Z" style="fill:rgb(0,160,222);fill-rule:nonzero;"/>
        <path d="M377.4,358.9L374,358.9L374,355.2L372.2,355.2L369.8,358.9L366,358.9L369,354.6C367.5,354 366.6,352.9 366.6,351.1C366.6,348.8 368.3,347.2 371.3,347.2L377.4,347.2L377.4,358.9ZM374,352.8L374,349.9L371.8,349.9C370.6,349.9 369.9,350.4 369.9,351.4C369.9,352.3 370.6,352.8 371.8,352.8L374,352.8Z" style="fill:rgb(0,160,222);fill-rule:nonzero;"/>
        <path d="M397.4,347.3L400.8,347.3L400.8,352.1L404.9,347.3L408.7,347.3L404.4,352.1L409.2,358.9L405.3,358.9L402.2,354.5L400.7,356.1L400.7,358.9L397.4,358.9L397.4,347.3Z" style="fill:rgb(0,160,222);fill-rule:nonzero;"/>
        <path d="M414.9,353.1C414.9,349.8 417.6,347.1 421.2,347.1C424.8,347.1 427.4,349.8 427.4,353.1C427.4,356.4 424.7,359.1 421.1,359.1C417.5,359.2 414.9,356.5 414.9,353.1ZM424.2,353.1C424.2,351.4 423,349.9 421.2,349.9C419.3,349.9 418.2,351.3 418.2,353.1C418.2,354.8 419.4,356.3 421.2,356.3C423,356.3 424.2,354.9 424.2,353.1Z" style="fill:rgb(0,160,222);fill-rule:nonzero;"/>
        <path d="M435.2,347.3L438.5,347.3L441.6,352.2L444.8,347.3L448.1,347.3L448.1,358.9L444.8,358.9L444.8,351.9L441.6,356.7L438.4,352L438.4,358.9L435.2,358.9L435.2,347.3Z" style="fill:rgb(0,160,222);fill-rule:nonzero;"/>
        <path d="M467,358.9L463.7,358.9L463.7,350.1L459.7,350.1L459.7,358.9L456.4,358.9L456.4,347.3L467,347.3L467,358.9Z" style="fill:rgb(0,160,222);fill-rule:nonzero;"/>
        <path d="M474.7,355.5C474.7,353 476.6,351.8 479.4,351.8C480.6,351.8 481.4,352 482.2,352.3L482.2,352.1C482.2,350.7 481.4,350 479.7,350C478.4,350 477.6,350.2 476.5,350.6L475.7,348.1C477,347.5 478.2,347.2 480.2,347.2C482,347.2 483.3,347.7 484.1,348.5C485,349.4 485.4,350.6 485.4,352.2L485.4,358.9L482.2,358.9L482.2,357.6C481.4,358.5 480.3,359.1 478.7,359.1C476.5,359.1 474.7,357.9 474.7,355.5ZM482.2,354.8L482.2,354.2C481.6,353.9 480.9,353.8 480.1,353.8C478.7,353.8 477.8,354.4 477.8,355.4C477.8,356.3 478.5,356.8 479.6,356.8C481.2,356.8 482.2,356 482.2,354.8Z" style="fill:rgb(0,160,222);fill-rule:nonzero;"/>
        <path d="M504.2,358.9L500.9,358.9L500.9,354.5L496.9,354.5L496.9,358.9L493.6,358.9L493.6,347.3L496.9,347.3L496.9,351.8L500.9,351.8L500.9,347.3L504.2,347.3L504.2,358.9Z" style="fill:rgb(0,160,222);fill-rule:nonzero;"/>
        <path d="M523.3,358.9L520.1,358.9L520.1,352.2L515.6,358.9L512.5,358.9L512.5,347.3L515.7,347.3L515.7,354.1L520.2,347.3L523.3,347.3L523.3,358.9Z" style="fill:rgb(0,160,222);fill-rule:nonzero;"/>
        <path d="M542,358.9L538.6,358.9L538.6,355.2L536.8,355.2L534.4,358.9L530.6,358.9L533.6,354.6C532.1,354 531.2,352.9 531.2,351.1C531.2,348.8 532.9,347.2 535.9,347.2L542,347.2L542,358.9ZM538.6,352.8L538.6,349.9L536.4,349.9C535.2,349.9 534.5,350.4 534.5,351.4C534.5,352.3 535.2,352.8 536.4,352.8L538.6,352.8Z" style="fill:rgb(0,160,222);fill-rule:nonzero;"/>
    </g>
</svg>
