<?xml version="1.0" encoding="UTF-8" standalone="no"?>
<!DOCTYPE svg PUBLIC "-//W3C//DTD SVG 1.1//EN" "http://www.w3.org/Graphics/SVG/1.1/DTD/svg11.dtd">
<svg width="100%" height="100%" viewBox="0 0 1939 295" version="1.1" xmlns="http://www.w3.org/2000/svg" xmlns:xlink="http://www.w3.org/1999/xlink" xml:space="preserve" xmlns:serif="http://www.serif.com/" style="fill-rule:evenodd;clip-rule:evenodd;stroke-linejoin:round;stroke-miterlimit:2;">
    <g transform="matrix(1,0,0,1,-154.158,-860.742)">
        <g transform="matrix(4.16667,0,0,4.16667,0,0)">
            <path d="M167.488,270.02L180.864,270.02L183.958,264.574L167.488,264.574L167.488,270.02ZM272.296,264.777L261.876,264.777L261.876,259.465L272.296,259.465C273.975,259.465 275.187,259.869 275.187,262.088C275.187,263.835 274.449,264.777 272.296,264.777ZM261.876,250.523L271.351,250.523C272.764,250.523 273.372,251.263 273.372,252.675C273.372,254.154 272.43,254.895 271.351,254.895L261.876,254.895L261.876,250.523ZM276.454,255.426C278.021,254.753 279.355,253.689 279.355,250.994C279.355,245.884 275.053,245.281 272.025,245.281L256.026,245.281L256.026,270.02L272.296,270.02C279.756,270.02 281.303,265.919 281.303,262.154C281.303,257.915 278.898,256.159 276.454,255.426ZM325.744,270.02L339.121,270.02L342.216,264.574L325.744,264.574L325.744,270.02ZM167.488,254.895L167.488,260.338L186.377,260.338L189.538,254.895L167.488,254.895ZM301.673,264.777L293.003,264.777L293.003,259.263L301.673,259.263C302.682,259.263 304.228,259.533 304.228,262.019C304.228,264.305 302.954,264.777 301.673,264.777ZM302.009,254.154L293.003,254.154L293.003,245.281L287.085,245.281L287.085,270.02L301.946,270.02C305.975,270.02 310.145,267.802 310.145,261.954C310.145,254.288 304.766,254.154 302.009,254.154ZM313.169,270.02L319.021,270.02L319.021,245.281L313.169,245.281L313.169,270.02ZM202.31,245.281L188.126,270.02L195.116,270.02L204.462,253.684L213.873,270.02L221.2,270.02L207.016,245.281L202.31,245.281ZM236.058,264.911C230.345,264.911 227.924,261.616 227.924,257.583C227.924,253.146 230.681,250.187 236.058,250.187C242.112,250.187 244.193,253.146 244.193,257.583C244.193,262.894 240.228,264.911 236.058,264.911ZM236.128,244.675C226.243,244.675 221.538,250.726 221.538,257.515C221.538,264.574 226.109,270.357 236.128,270.357C240.497,270.357 250.583,268.339 250.583,257.515C250.583,250.458 246.076,244.675 236.128,244.675ZM133.524,264.574L142.869,248.238L152.283,264.574L133.524,264.574ZM145.492,239.835L140.651,239.835L126.467,264.574L122.905,264.574L122.905,277.28L128.549,277.28L128.549,270.02L157.592,270.02L157.592,277.28L163.239,277.28L163.239,264.574L159.676,264.574L145.492,239.835ZM195.048,245.281L167.488,245.281L167.488,250.726L191.889,250.726L195.048,245.281ZM325.744,254.895L325.744,260.338L344.633,260.338L347.793,254.895L325.744,254.895ZM353.304,245.281L325.744,245.281L325.744,250.726L350.148,250.726L353.304,245.281ZM497.037,245.281L483.049,261.349L483.049,245.281L477.134,245.281L477.134,270.02L482.11,270.02L496.363,253.819L496.363,270.02L502.279,270.02L502.279,245.281L497.037,245.281ZM360.569,245.281L346.381,270.02L353.373,270.02L362.719,253.684L372.131,270.02L379.461,270.02L365.274,245.281L360.569,245.281ZM432.629,254.895L419.654,254.895L419.654,245.281L413.738,245.281L413.738,270.02L419.654,270.02L419.654,260.338L432.629,260.338L432.629,270.02L438.546,270.02L438.546,245.281L432.629,245.281L432.629,254.895ZM451.183,261.349L451.183,245.281L445.268,245.281L445.268,270.02L450.241,270.02L464.494,253.819L464.494,270.02L470.411,270.02L470.411,245.281L465.167,245.281L451.183,261.349ZM387.787,261.214L387.787,245.281L381.868,245.281L381.868,270.02L386.846,270.02L401.097,253.952L401.097,270.02L407.014,270.02L407.014,245.281L402.042,245.281L387.787,261.214Z" style="fill:rgb(35,31,32);fill-rule:nonzero;"/>
        </g>
        <g transform="matrix(4.16667,0,0,4.16667,0,0)">
            <path d="M79.096,257.993L50.989,245.83L45.021,256.166L76.644,262.244L79.096,257.993ZM75.18,270.061L84.528,270.061L92.742,255.836L100.955,270.061L110.301,270.061L92.742,239.645L75.18,270.061ZM43.626,258.587L36.998,270.061L72.131,270.061L75.247,264.664L43.626,258.587ZM91.217,237.005L73.651,206.578L67.016,218.071L88.098,242.408L91.217,237.005ZM86.701,244.831L65.617,220.49L59.656,230.82L84.246,249.081L86.701,244.831ZM82.917,251.375L58.323,233.126L52.318,243.53L80.427,255.696L82.917,251.375Z" style="fill:rgb(251,173,23);fill-rule:nonzero;"/>
        </g>
    </g>
</svg>
