<svg viewBox="0 0 158 23" xmlns="http://www.w3.org/2000/svg" xml:space="preserve" style="fill-rule:evenodd;clip-rule:evenodd;stroke-linejoin:round;stroke-miterlimit:2"><path d="M18.314.373c-.998 0-1.847.419-2.513 1.264L5.984 14.155 5.559 1.668C5.501.792 4.985.373 3.987.404a2.86 2.86 0 0 0-1.789.613c-.608.427-.999.931-1.215 1.543-.116.311-.183.59-.183.846l1.398 17.628c0 .582.299.869.907.869.607 0 1.123-.287 1.572-.869L19.221 3.406c.183-.279.333-.566.449-.846.217-.612.217-1.116-.025-1.543-.274-.419-.699-.644-1.331-.644Zm76.088 20.996c0 .589.333.868.907.868.607 0 1.123-.279 1.581-.868l14.568-17.66c.183-.248.333-.527.425-.806.241-.621.208-1.125-.034-1.544-.274-.426-.698-.651-1.331-.651-.998 0-1.847.426-2.512 1.264l-9.818 12.517-.425-12.486c-.058-.869-.574-1.295-1.572-1.295-.641 0-1.24.225-1.814.651-.549.419-.973.954-1.19 1.544a2.42 2.42 0 0 0-.174.837l1.389 17.629ZM23.764 11.015c.881-1.854 2.238-3.428 4.085-4.638 1.855-1.233 3.727-1.846 5.608-1.846 1.905 0 3.211.613 3.91 1.823.691 1.233.632 2.776-.241 4.661-.882 1.846-2.213 3.389-4.094 4.63-1.814 1.233-3.694 1.854-5.608 1.854-1.905 0-3.211-.621-3.902-1.854-.699-1.21-.632-2.784.242-4.63Zm1.664 10.749c3.211 0 6.39-1.039 9.543-3.118 3.178-2.047 5.449-4.63 6.881-7.662 1.422-3.033 1.481-5.584.266-7.632-1.24-2.078-3.453-3.117-6.665-3.117-3.211 0-6.389 1.039-9.543 3.117-3.178 2.071-5.449 4.63-6.872 7.663-1.39 3.032-1.481 5.584-.275 7.662 1.248 2.071 3.453 3.087 6.665 3.087Zm15.567-.535h13.969c.608 0 1.207-.225 1.847-.644.608-.426 1.057-.93 1.332-1.52.274-.558.308-1.062.066-1.481-.249-.458-.64-.652-1.248-.652h-7.788L64.899 2.088c.149-.139.274-.31.366-.481.091-.225.116-.418.025-.62-.117-.163-.267-.248-.516-.248H52.809c-.599.031-1.206.225-1.847.643a3.89 3.89 0 0 0-1.356 1.521c-.25.589-.274 1.093-.033 1.512.208.419.632.62 1.24.62h5.541l-15.417 14.79c-.209.225-.358.396-.45.59-.249.535-.091.814.508.814Zm41.626-10.245c-.882 1.854-2.247 3.397-4.061 4.63-1.847 1.21-3.727 1.823-5.632 1.823-1.914 0-3.212-.613-3.911-1.823-.699-1.233-.632-2.776.241-4.63.882-1.877 2.247-3.428 4.094-4.661C75.199 5.121 77.046 4.5 78.951 4.5c1.914 0 3.212.621 3.911 1.823.699 1.233.632 2.784-.241 4.661Zm5-7.694C86.373 1.243 84.168.204 80.957.204c-3.212 0-6.399 1.039-9.544 3.117-3.178 2.079-5.458 4.63-6.88 7.663-1.39 3.032-1.481 5.584-.275 7.662 1.248 2.048 3.461 3.087 6.664 3.087 3.212 0 6.399-1.039 9.544-3.118 3.186-2.07 5.458-4.63 6.88-7.662 1.39-3.025 1.515-5.584.275-7.663Zm42.674 7.64c-.849 1.853-2.213 3.42-4.06 4.63-1.847 1.233-3.719 1.853-5.633 1.853-1.872 0-3.178-.62-3.902-1.853-.699-1.21-.608-2.753.241-4.63.874-1.854 2.238-3.397 4.085-4.63 1.847-1.241 3.728-1.831 5.608-1.854 1.905 0 3.212.613 3.902 1.854.732 1.202.641 2.745-.241 4.63ZM128.631.149c-3.178.031-6.39 1.063-9.543 3.141-3.145 2.048-5.45 4.638-6.873 7.663-1.397 3.009-1.489 5.561-.274 7.639 1.239 2.079 3.453 3.118 6.664 3.118 3.212 0 6.39-1.039 9.543-3.118 3.179-2.078 5.45-4.63 6.873-7.662 1.423-3.033 1.514-5.592.274-7.663-1.239-2.055-3.452-3.118-6.664-3.118Zm29.836.784a.601.601 0 0 0-.516-.279l-11.964.031c-.607 0-1.215.193-1.847.643-.608.419-1.065.923-1.331 1.489-.275.59-.308 1.094-.059 1.513.242.426.633.62 1.24.62h5.575l-15.451 14.79a2.84 2.84 0 0 0-.458.59c-.241.566-.091.814.516.814h13.97c.599 0 1.206-.225 1.847-.644.599-.419 1.057-.899 1.331-1.52.275-.558.3-1.062.058-1.481-.208-.427-.632-.652-1.239-.652l-7.788.031 15.725-14.852c.183-.139.275-.302.358-.473.125-.256.125-.45.033-.62Z" style="fill:#ec1b22;fill-rule:nonzero" transform="translate(-.8 -.15)"/></svg>