<?xml version="1.0" encoding="UTF-8" standalone="no"?>
<!DOCTYPE svg PUBLIC "-//W3C//DTD SVG 1.1//EN" "http://www.w3.org/Graphics/SVG/1.1/DTD/svg11.dtd">
<svg width="100%" height="100%" viewBox="0 0 591 99" version="1.1" xmlns="http://www.w3.org/2000/svg" xmlns:xlink="http://www.w3.org/1999/xlink" xml:space="preserve" xmlns:serif="http://www.serif.com/" style="fill-rule:evenodd;clip-rule:evenodd;stroke-linejoin:round;stroke-miterlimit:2;">
    <g transform="matrix(1,0,0,1,-944.881,-1704.59)">
        <g id="Layer-1" serif:id="Layer 1" transform="matrix(4.16667,0,0,4.16667,0,0)">
            <g transform="matrix(1,0,0,1,273.919,424.291)">
                <path d="M0,-0.312L-0.031,-0.312L-0.996,5.077L-3.045,5.077L-1.755,-1.054L-3.017,-5.389L-1.039,-5.389L-0.031,-0.775L0,-0.775L0,-5.389L2.035,-5.389L2.035,-0.775L2.063,-0.775L3.091,-5.389L5.049,-5.389L3.793,-1.054L5.081,5.077L3.031,5.077L2.063,-0.312L2.035,-0.312L2.035,5.077L0,5.077L0,-0.312Z" style="fill:rgb(0,158,77);fill-rule:nonzero;"/>
            </g>
            <g transform="matrix(1,0,0,1,281.737,422.633)">
                <path d="M0,5.055C0,5.366 0.115,5.575 0.337,5.575C0.559,5.575 0.675,5.381 0.675,5.055L0.675,3.486L2.476,3.486L2.476,5.027C2.476,6.181 1.403,6.909 0.337,6.909C-0.86,6.909 -1.829,6.162 -1.829,5.027L-1.829,-0.022C-1.829,-1.127 -0.853,-1.854 0.337,-1.854C1.39,-1.854 2.476,-1.137 2.476,-0.023L2.476,2.815L0,2.815L0,5.055M0.675,-0.023C0.675,-0.353 0.49,-0.48 0.337,-0.48C0.184,-0.48 0,-0.345 0,-0.023L0,1.57L0.675,1.57L0.675,-0.023" style="fill:rgb(0,158,77);fill-rule:nonzero;"/>
            </g>
            <g transform="matrix(1,0,0,1,285.22,420.993)">
                <path d="M0,8.374C0.174,7.727 0.219,7.045 0.281,6.38C0.355,5.57 0.4,4.769 0.435,3.957C0.493,2.638 0.545,1.32 0.545,0L4.544,0L4.544,8.374L2.712,8.374L2.712,1.396L2.241,1.396C2.241,3.718 2.179,6.082 1.787,8.374L0,8.374" style="fill:rgb(0,158,77);fill-rule:nonzero;"/>
            </g>
            <g transform="matrix(1,0,0,1,293.216,420.755)">
                <path d="M0,8.612L0,10.466L-2.032,10.466L-2.032,7.02L-1.682,7.02C-1.274,5.566 -1.37,4.016 -1.332,2.524L-1.332,-1.854L3.251,-1.854L3.251,7.02L3.678,7.02L3.678,10.466L1.64,10.466L1.64,8.612L0,8.612M1.188,7.02L1.188,-0.383L0.616,-0.383L0.616,1.349C0.603,2.424 0.554,3.501 0.546,4.575C0.541,5.383 0.528,6.234 0.339,7.02L1.188,7.02" style="fill:rgb(0,158,77);fill-rule:nonzero;"/>
            </g>
            <g transform="matrix(1,0,0,1,297.902,427.14)">
                <path d="M0,-3.965C0,-4.744 0.155,-5.337 0.455,-5.737C0.756,-6.139 1.33,-6.342 2.165,-6.342C3.006,-6.342 3.573,-6.139 3.867,-5.737C4.161,-5.337 4.304,-4.744 4.304,-3.965L4.304,0.043C4.304,0.805 4.163,1.386 3.883,1.781C3.596,2.177 3.026,2.377 2.165,2.377C1.33,2.377 0.756,2.177 0.455,1.781C0.155,1.386 0,0.805 0,0.043L0,-3.965ZM2.503,-4.53C2.499,-4.681 2.412,-4.973 2.182,-4.973C1.952,-4.973 1.862,-4.677 1.86,-4.53L1.86,0.548C1.86,0.663 1.948,1.067 2.182,1.067C2.42,1.067 2.503,0.651 2.503,0.548L2.503,-4.53" style="fill:rgb(0,158,77);fill-rule:nonzero;"/>
            </g>
            <g transform="matrix(1,0,0,1,303.318,431.076)">
                <path d="M0,-10.082L1.772,-10.082L1.772,-9.382L1.804,-9.382C2.115,-9.915 2.52,-10.229 3.184,-10.229C4.012,-10.229 4.266,-9.56 4.293,-8.866L4.293,-2.956C4.293,-2.187 3.952,-1.575 3.107,-1.575C2.479,-1.575 2.217,-1.924 1.82,-2.335L1.804,-2.335L1.804,0.147L0,0.147L0,-10.082M2.464,-8.211C2.464,-8.382 2.342,-8.598 2.134,-8.598C1.926,-8.598 1.804,-8.382 1.804,-8.211L1.804,-3.565C1.804,-3.366 1.826,-3.063 2.134,-3.063C2.441,-3.063 2.464,-3.335 2.464,-3.522L2.464,-8.211" style="fill:rgb(0,158,77);fill-rule:nonzero;"/>
            </g>
            <g transform="matrix(1,0,0,1,312.305,424.877)">
                <path d="M0,-1.597L0,-0.344L2.885,-0.344C2.849,0.852 2.605,1.79 2.162,2.481C1.717,3.173 1.144,3.511 0.452,3.511C-0.781,3.511 -1.558,2.611 -1.874,0.816L-2.861,1.172C-2.413,3.523 -1.332,4.694 0.376,4.694C1.601,4.694 2.513,4.155 3.111,3.074C3.709,1.996 3.988,0.664 3.952,-0.914C3.952,-1.882 3.816,-2.763 3.548,-3.562C3.283,-4.358 2.877,-5.013 2.323,-5.526C1.775,-6.037 1.118,-6.291 0.355,-6.291C-0.448,-6.291 -1.12,-6.023 -1.662,-5.475C-2.201,-4.928 -2.568,-4.168 -2.76,-3.198L-1.756,-2.836C-1.462,-4.321 -0.756,-5.061 0.361,-5.061C1.115,-5.061 1.708,-4.75 2.137,-4.126C2.563,-3.505 2.803,-2.661 2.846,-1.597L0,-1.597Z" style="fill:rgb(0,158,77);fill-rule:nonzero;"/>
            </g>
            <g transform="matrix(1,0,0,1,317.493,429.39)">
                <path d="M0,-7.694L0.954,-7.694L0.954,-4.372C1.256,-4.372 1.47,-4.451 1.589,-4.609C1.71,-4.77 1.891,-5.235 2.131,-6.003C2.314,-6.61 2.467,-7.008 2.582,-7.203L2.985,-7.595C3.136,-7.666 3.378,-7.694 3.714,-7.694L3.903,-7.694L3.903,-6.619L3.638,-6.624C3.39,-6.624 3.229,-6.573 3.161,-6.471C3.087,-6.364 2.972,-6.048 2.819,-5.52C2.675,-5.018 2.543,-4.673 2.421,-4.476L1.871,-3.951C2.274,-3.798 2.678,-3.276 3.076,-2.384L4.118,0L3.07,0L2.052,-2.384C1.843,-2.864 1.665,-3.18 1.51,-3.331L0.954,-3.559L0.954,0L0,0L0,-7.694Z" style="fill:rgb(0,158,77);fill-rule:nonzero;"/>
            </g>
            <g transform="matrix(1,0,0,1,326.028,424.507)">
                <path d="M0,2.064L0.935,2.23C0.835,3.114 0.573,3.808 0.149,4.308C-0.271,4.807 -0.791,5.056 -1.403,5.056C-2.171,5.056 -2.792,4.711 -3.258,4.025C-3.724,3.336 -3.957,2.349 -3.957,1.062C-3.957,0.232 -3.858,-0.497 -3.655,-1.12C-3.455,-1.741 -3.15,-2.209 -2.738,-2.523C-2.326,-2.833 -1.88,-2.992 -1.397,-2.992C-0.791,-2.992 -0.285,-2.777 0.102,-2.354C0.488,-1.93 0.739,-1.332 0.847,-0.553L-0.082,-0.358C-0.167,-0.874 -0.325,-1.264 -0.551,-1.526C-0.771,-1.786 -1.042,-1.916 -1.358,-1.916C-1.841,-1.916 -2.23,-1.682 -2.532,-1.207C-2.831,-0.739 -2.983,0.006 -2.983,1.028C-2.983,2.061 -2.837,2.814 -2.544,3.283C-2.255,3.749 -1.88,3.983 -1.411,3.983C-1.042,3.983 -0.729,3.825 -0.478,3.511C-0.226,3.199 -0.067,2.718 0,2.064" style="fill:rgb(0,158,77);fill-rule:nonzero;"/>
            </g>
            <g transform="matrix(1,0,0,1,327.786,429.39)">
                <path d="M0,-7.694L4.435,-7.694L4.435,0L3.48,0L3.48,-6.619L0.948,-6.619L0.948,0L0,0L0,-7.694Z" style="fill:rgb(0,158,77);fill-rule:nonzero;"/>
            </g>
            <g transform="matrix(1,0,0,1,337.493,424.169)">
                <path d="M0,2.74L0.985,2.91C0.829,3.697 0.545,4.31 0.124,4.745C-0.296,5.177 -0.833,5.394 -1.484,5.394C-2.306,5.394 -2.958,5.05 -3.44,4.355C-3.921,3.664 -4.16,2.693 -4.16,1.439C-4.16,0.144 -3.915,-0.864 -3.433,-1.578C-2.944,-2.292 -2.314,-2.654 -1.538,-2.654C-0.784,-2.654 -0.173,-2.301 0.302,-1.6C0.782,-0.898 1.019,0.088 1.019,1.357L1.013,1.708L-3.179,1.708C-3.142,2.552 -2.967,3.201 -2.653,3.649C-2.34,4.098 -1.95,4.321 -1.479,4.321C-1.132,4.321 -0.833,4.197 -0.587,3.945C-0.339,3.695 -0.144,3.297 0,2.74M-3.128,0.633L0.011,0.633C-0.031,-0.014 -0.152,-0.502 -0.348,-0.822C-0.649,-1.324 -1.047,-1.578 -1.527,-1.578C-1.965,-1.578 -2.331,-1.377 -2.631,-0.977C-2.93,-0.573 -3.091,-0.037 -3.128,0.633" style="fill:rgb(0,158,77);fill-rule:nonzero;"/>
            </g>
            <g transform="matrix(1,0,0,1,340.191,431.572)">
                <path d="M0,-9.876L3.915,-9.876L3.915,-3.254L4.521,-3.254L4.521,0L3.74,0L3.74,-2.182L-0.684,-2.182L-0.684,0L-1.468,0L-1.468,-3.254L-0.968,-3.254C-0.296,-4.505 0.028,-6.712 0,-9.876M0.79,-8.801C0.723,-6.3 0.438,-4.454 -0.057,-3.254L2.967,-3.254L2.967,-8.801L0.79,-8.801Z" style="fill:rgb(0,158,77);fill-rule:nonzero;"/>
            </g>
            <g transform="matrix(1,0,0,1,345.763,429.39)">
                <path d="M0,-7.694L0.951,-7.694L0.951,-1.826L3.594,-7.694L4.618,-7.694L4.618,0L3.664,0L3.664,-5.834L1.022,0L0,0L0,-7.694Z" style="fill:rgb(0,158,77);fill-rule:nonzero;"/>
            </g>
            <g transform="matrix(1,0,0,1,351.831,431.572)">
                <path d="M0,-9.876L0.951,-9.876L0.951,-3.254L3.588,-3.254L3.588,-9.876L4.539,-9.876L4.539,-3.254L5.154,-3.254L5.154,0L4.372,0L4.372,-2.182L0,-2.182L0,-9.876Z" style="fill:rgb(0,158,77);fill-rule:nonzero;"/>
            </g>
            <g transform="matrix(1,0,0,1,358.023,429.39)">
                <path d="M0,-7.694L0.955,-7.694L0.955,-1.826L3.591,-7.694L4.618,-7.694L4.618,0L3.67,0L3.67,-5.834L1.027,0L0,0L0,-7.694Z" style="fill:rgb(0,158,77);fill-rule:nonzero;"/>
            </g>
            <g transform="matrix(1,0,0,1,368.504,429.39)">
                <path d="M0,-7.694L0,0L-0.948,0L-0.948,-3L-1.502,-3C-1.838,-3 -2.086,-2.94 -2.249,-2.822C-2.413,-2.704 -2.65,-2.325 -2.967,-1.682L-3.797,0L-4.979,0L-3.951,-2.074C-3.639,-2.706 -3.322,-3.062 -3.012,-3.141C-3.56,-3.249 -3.96,-3.513 -4.22,-3.951C-4.485,-4.385 -4.617,-4.885 -4.617,-5.45C-4.617,-6.119 -4.445,-6.661 -4.098,-7.073C-3.76,-7.488 -3.257,-7.694 -2.607,-7.694L0,-7.694ZM-0.948,-6.619L-2.303,-6.619C-2.871,-6.619 -3.237,-6.497 -3.404,-6.255C-3.567,-6.014 -3.649,-5.729 -3.649,-5.407C-3.649,-4.948 -3.525,-4.612 -3.285,-4.397C-3.045,-4.18 -2.616,-4.073 -2.004,-4.073L-0.948,-4.073L-0.948,-6.619" style="fill:rgb(0,158,77);fill-rule:nonzero;"/>
            </g>
            <g transform="matrix(1,0,0,1,265.449,426.714)">
                <path d="M0,4.054C-1.115,4.054 -2.027,3.145 -2.027,2.027C-2.027,0.912 -1.115,0.003 0,0.003C1.112,0.003 2.024,0.912 2.024,2.027C2.024,3.145 1.112,4.054 0,4.054M0,-0.273C-1.27,-0.273 -2.303,0.76 -2.303,2.027C-2.303,3.294 -1.27,4.327 0,4.327C1.267,4.327 2.3,3.294 2.3,2.027C2.3,0.76 1.267,-0.273 0,-0.273" style="fill:rgb(0,158,77);fill-rule:nonzero;"/>
            </g>
            <g transform="matrix(1,0,0,1,264.645,427.519)">
                <path d="M0,2.549L0,0L0.889,0C1.42,0 1.71,0.23 1.71,0.714C1.71,1.101 1.531,1.338 1.16,1.425C1.361,1.598 1.518,1.808 1.628,2.052L1.879,2.549L1.38,2.549L1.069,1.995C0.896,1.703 0.846,1.487 0.423,1.487L0.423,2.549L0,2.549M0.423,1.078L0.753,1.078C1.072,1.078 1.275,1.011 1.275,0.748C1.275,0.499 1.057,0.432 0.753,0.432L0.423,0.432L0.423,1.078" style="fill:rgb(0,158,77);fill-rule:nonzero;"/>
            </g>
            <g transform="matrix(1,0,0,1,241.561,423.285)">
                <path d="M0,-4.68C1.053,-9.095 5.027,-12.38 9.766,-12.38C14.502,-12.38 18.474,-9.095 19.529,-4.68L0,-4.68ZM9.766,7.702C7.762,7.702 5.896,7.115 4.333,6.105L15.202,6.105C13.633,7.115 11.767,7.702 9.766,7.702M21.375,-4.68C20.286,-10.099 15.501,-14.183 9.766,-14.183C4.025,-14.183 -0.759,-10.099 -1.846,-4.68L-14.79,-4.68C-14.79,-4.68 -14.479,-4.011 -13.599,-3.291C-13.266,-3.017 -12.898,-2.732 -12.461,-2.518C-12.159,-2.371 -11.366,-2.08 -11.301,-2.047L17.491,-2.047L16.684,-0.68L-9.958,-0.68L-9.802,-0.395C-9.427,0.268 -8.792,0.778 -8.185,1.168C-7.957,1.315 -7.386,1.619 -6.864,1.818C-6.522,1.949 -6.125,2.024 -6.119,2.026L15.383,2.026L14.576,3.399L-4.081,3.399C-3.276,4.589 -2.424,5.233 -1.363,5.729C-0.88,5.955 -0.265,6.096 -0.24,6.105L1.462,6.105C3.599,8.205 6.531,9.503 9.766,9.503C12.998,9.503 15.928,8.205 18.067,6.105L20.283,6.105L25.778,-4.68L21.375,-4.68Z" style="fill:rgb(0,158,77);fill-rule:nonzero;"/>
            </g>
            <g transform="matrix(1,0,0,1,273.933,415.738)">
                <path d="M0,-4.09L0,-3.136L-1.843,-3.136L-1.843,0L-3.181,0L-3.181,-4.09L0,-4.09Z" style="fill:rgb(0,158,77);fill-rule:nonzero;"/>
            </g>
            <g transform="matrix(1,0,0,1,275.491,416.668)">
                <path d="M0,-3.905L0,-3.465L0.014,-3.465C0.181,-3.826 0.604,-3.989 0.945,-3.989C1.846,-3.989 2.275,-3.259 2.275,-2.437C2.275,-1.269 1.547,-0.842 0.886,-0.842C0.562,-0.842 0.322,-0.972 0.124,-1.223L0.124,0.084L-1.062,0.084L-1.062,-3.905L0,-3.905ZM1.092,-2.423C1.092,-2.891 0.892,-3.129 0.576,-3.129C0.293,-3.129 0.099,-2.843 0.099,-2.443C0.099,-2.03 0.276,-1.745 0.581,-1.745C0.897,-1.745 1.092,-2.014 1.092,-2.423" style="fill:rgb(0,158,77);fill-rule:nonzero;"/>
            </g>
            <g transform="matrix(1,0,0,1,279.185,416.752)">
                <path d="M0,-3.989L0.522,-2.154L1.042,-3.989L2.176,-3.989L1.222,-1.212C0.912,-0.291 0.788,0 -0.265,0L-0.79,-0.023L-0.79,-0.842C-0.282,-0.842 -0.158,-0.867 -0.158,-1.051C-0.158,-1.107 -0.172,-1.183 -1.188,-3.989L0,-3.989" style="fill:rgb(0,158,77);fill-rule:nonzero;"/>
            </g>
            <g transform="matrix(1,0,0,1,284.986,415.738)">
                <path d="M0,-2.975L0,0L-1.183,0L-1.183,-2.111L-2.055,-2.111L-2.055,0L-3.238,0L-3.238,-2.975L0,-2.975Z" style="fill:rgb(0,158,77);fill-rule:nonzero;"/>
            </g>
            <g transform="matrix(1,0,0,1,288.85,415.738)">
                <path d="M0,-2.975L0,0L-1.183,0L-1.183,-2.111L-2.058,-2.111L-2.058,0L-3.24,0L-3.24,-2.975L0,-2.975Z" style="fill:rgb(0,158,77);fill-rule:nonzero;"/>
            </g>
            <g transform="matrix(1,0,0,1,289.516,414.826)">
                <path d="M0,-1.149C0,-1.778 0.449,-2.148 1.623,-2.148C3.031,-2.148 3.119,-1.626 3.119,-0.918L3.119,0.477L3.277,0.858L3.277,0.912L2.058,0.912L1.996,0.596C1.666,0.906 1.324,0.999 0.88,0.999C0.316,0.999 -0.186,0.72 -0.186,0.101C-0.186,-1.251 1.934,-0.641 1.934,-1.194C1.934,-1.194 1.952,-1.437 1.549,-1.437C1.358,-1.437 1.16,-1.406 1.135,-1.149L0,-1.149ZM1.036,0.076C1.036,0.076 1.025,0.33 1.414,0.33C1.816,0.33 1.934,0.048 1.934,-0.407C1.549,-0.217 1.036,-0.308 1.036,0.076" style="fill:rgb(0,158,77);fill-rule:nonzero;"/>
            </g>
            <g transform="matrix(1,0,0,1,296.332,414.828)">
                <path d="M0,-1.157L0.756,-2.066L2.134,-2.066L1.033,-0.914L2.275,0.909L0.858,0.909L0.22,-0.143L0,0.074L0,0.909L-1.18,0.909L-1.18,-2.066L0,-2.066L0,-1.157Z" style="fill:rgb(0,158,77);fill-rule:nonzero;"/>
            </g>
            <g transform="matrix(1,0,0,1,300.355,415.825)">
                <path d="M0,-3.147C1.053,-3.147 1.699,-2.529 1.699,-1.6C1.699,-0.511 0.96,0 0.006,0C-0.948,0 -1.688,-0.522 -1.688,-1.538C-1.688,-2.571 -1.008,-3.147 0,-3.147M-0.505,-1.6C-0.505,-1.042 -0.296,-0.793 0.006,-0.793C0.321,-0.793 0.517,-1.042 0.517,-1.6C0.517,-2.041 0.316,-2.351 0.017,-2.351C-0.387,-2.351 -0.505,-1.936 -0.505,-1.6" style="fill:rgb(0,158,77);fill-rule:nonzero;"/>
            </g>
            <g transform="matrix(1,0,0,1,303.917,415.738)">
                <path d="M0,-2.975L0.517,-1.321L1.032,-2.975L2.385,-2.975L2.385,0L1.337,0L1.337,-1.236L1.45,-1.998L1.428,-1.998L0.793,0L0.237,0L-0.398,-1.998L-0.424,-1.998L-0.308,-1.168L-0.308,0L-1.353,0L-1.353,-2.975L0,-2.975Z" style="fill:rgb(0,158,77);fill-rule:nonzero;"/>
            </g>
            <g transform="matrix(1,0,0,1,310.166,415.738)">
                <path d="M0,-2.975L0,0L-1.183,0L-1.183,-2.111L-2.059,-2.111L-2.059,0L-3.24,0L-3.24,-2.975L0,-2.975Z" style="fill:rgb(0,158,77);fill-rule:nonzero;"/>
            </g>
            <g transform="matrix(1,0,0,1,310.829,414.826)">
                <path d="M0,-1.149C0,-1.778 0.446,-2.148 1.623,-2.148C3.034,-2.148 3.122,-1.626 3.122,-0.918L3.122,0.477L3.276,0.858L3.276,0.912L2.055,0.912L1.998,0.596C1.665,0.906 1.323,0.999 0.88,0.999C0.315,0.999 -0.184,0.72 -0.184,0.101C-0.184,-1.251 1.937,-0.641 1.937,-1.194C1.937,-1.194 1.927,-1.437 1.552,-1.437C1.396,-1.437 1.163,-1.406 1.138,-1.149L0,-1.149ZM1.038,0.076C1.038,0.076 1.024,0.33 1.411,0.33C1.825,0.33 1.937,0.048 1.937,-0.407C1.552,-0.217 1.038,-0.308 1.038,0.076" style="fill:rgb(0,158,77);fill-rule:nonzero;"/>
            </g>
            <g transform="matrix(1,0,0,1,315.757,414.743)">
                <path d="M0,-0.987L0.872,-0.987L0.872,-1.981L2.055,-1.981L2.055,0.994L0.872,0.994L0.872,-0.123L0,-0.123L0,0.994L-1.186,0.994L-1.186,-1.981L0,-1.981L0,-0.987Z" style="fill:rgb(0,158,77);fill-rule:nonzero;"/>
            </g>
            <g transform="matrix(1,0,0,1,319.57,414.11)">
                <path d="M0,0.281L1.014,-1.347L2.201,-1.347L2.201,1.628L1.064,1.628L1.064,0.052L0.048,1.628L-1.135,1.628L-1.135,-1.347L0,-1.347L0,0.281Z" style="fill:rgb(0,158,77);fill-rule:nonzero;"/>
            </g>
            <g transform="matrix(1,0,0,1,323.53,412.967)">
                <path d="M0,1.424L1.013,-0.204L2.201,-0.204L2.201,2.771L1.062,2.771L1.062,1.195L0.048,2.771L-1.135,2.771L-1.135,-0.204L0,-0.204L0,1.424ZM-0.065,-1.347C-0.028,-1.028 0.276,-0.992 0.539,-0.992C0.895,-0.992 1.062,-1.104 1.104,-1.347L1.546,-1.347C1.524,-0.76 1.053,-0.475 0.505,-0.475C-0.093,-0.475 -0.472,-0.718 -0.514,-1.347L-0.065,-1.347Z" style="fill:rgb(0,158,77);fill-rule:nonzero;"/>
            </g>
        </g>
    </g>
</svg>
