<?xml version="1.0" standalone="no"?>
<!DOCTYPE svg PUBLIC "-//W3C//DTD SVG 20010904//EN"
 "http://www.w3.org/TR/2001/REC-SVG-20010904/DTD/svg10.dtd">
<svg version="1.0" xmlns="http://www.w3.org/2000/svg"
 width="976.000000pt" height="976.000000pt" viewBox="0 0 976.000000 976.000000"
 preserveAspectRatio="xMidYMid meet">
<metadata>
Created by potrace 1.14, written by Peter Selinger 2001-2017
</metadata>
<g transform="translate(0.000000,976.000000) scale(0.100000,-0.100000)"
fill="#000000" stroke="none">
<path d="M4538 9395 c-2 -2 -49 -7 -103 -10 -55 -4 -113 -8 -130 -10 -16 -2
-55 -6 -85 -9 -30 -3 -66 -8 -80 -10 -14 -3 -45 -7 -70 -10 -25 -3 -55 -8 -67
-10 -11 -3 -43 -8 -70 -12 -56 -9 -62 -11 -65 -14 -2 -1 -16 -4 -33 -5 -16 -2
-30 -4 -30 -5 0 -2 -29 -8 -65 -15 -14 -2 -61 -13 -105 -25 -44 -12 -89 -24
-101 -26 -12 -2 -40 -10 -63 -19 -23 -8 -44 -14 -46 -14 -3 0 -45 -12 -93 -28
-48 -15 -89 -27 -92 -28 -3 0 -9 -3 -15 -6 -5 -4 -41 -16 -79 -29 -37 -12 -80
-29 -95 -36 -14 -8 -30 -14 -34 -14 -11 0 -127 -50 -225 -95 -40 -19 -74 -35
-77 -35 -6 0 -209 -105 -250 -129 -16 -10 -57 -33 -90 -51 -33 -18 -63 -37
-66 -42 -3 -5 -10 -10 -15 -10 -23 -2 -295 -186 -462 -313 -7 -5 -21 -17 -31
-25 -9 -8 -39 -33 -66 -55 -28 -22 -55 -44 -61 -50 -6 -5 -40 -35 -75 -65 -35
-30 -134 -124 -219 -210 -143 -143 -180 -183 -300 -325 -68 -81 -74 -88 -99
-124 l-24 -33 479 -479 c263 -263 481 -479 484 -478 3 0 42 50 87 112 46 62
97 128 113 147 131 151 265 289 370 380 35 30 69 60 76 67 7 7 15 13 18 13 3
0 14 8 24 18 24 22 45 38 107 85 28 20 55 40 60 45 80 62 319 205 474 282 171
85 461 199 576 226 44 11 50 13 50 14 0 1 7 3 15 5 8 1 53 12 100 23 146 36
306 63 455 78 123 12 155 13 345 14 187 0 226 -2 349 -15 141 -15 132 -13 241
-30 14 -2 48 -8 75 -14 28 -6 61 -13 75 -15 14 -2 54 -12 90 -21 36 -10 70
-18 75 -20 92 -19 366 -115 515 -182 81 -35 296 -146 311 -159 8 -8 18 -14 22
-14 7 0 158 -91 167 -100 3 -3 35 -25 71 -50 63 -43 77 -54 164 -121 143 -110
316 -273 440 -413 33 -38 65 -73 70 -80 39 -42 165 -207 165 -216 0 -5 3 -10
8 -10 4 0 23 -25 41 -55 19 -30 39 -55 44 -55 5 0 225 216 488 480 436 436
479 481 465 496 -9 8 -16 18 -16 22 0 4 -14 23 -30 42 -16 19 -33 40 -37 45
-8 10 -75 92 -118 144 -88 107 -377 400 -479 486 -32 28 -64 55 -70 60 -98 92
-574 435 -602 435 -4 0 -22 11 -40 25 -18 14 -39 25 -47 25 -9 0 -17 4 -19 8
-4 10 -121 78 -127 73 -2 -1 -7 1 -10 6 -6 8 -257 134 -331 165 -45 19 -136
57 -175 73 -50 21 -179 69 -190 71 -5 1 -53 17 -105 34 -103 34 -216 66 -301
85 -11 2 -29 7 -39 10 -23 7 -57 15 -95 21 -16 3 -37 8 -45 11 -8 3 -22 7 -30
8 -13 1 -36 6 -106 19 -12 2 -39 7 -60 10 -22 4 -54 9 -72 12 -17 4 -47 8 -65
10 -17 2 -45 5 -62 7 -16 3 -68 8 -115 12 -47 4 -98 9 -115 12 -41 6 -622 13
-627 8z"/>
<path d="M4176 7676 c-174 -99 -358 -261 -486 -426 -19 -25 -38 -46 -42 -48
-5 -2 -8 -10 -8 -18 0 -8 -4 -14 -10 -14 -5 0 -10 -6 -10 -14 0 -8 -3 -16 -7
-18 -24 -10 -153 -241 -214 -383 -36 -83 -73 -185 -68 -189 2 -3 24 -7 49 -11
25 -4 83 -16 130 -27 47 -11 96 -22 110 -24 14 -3 45 -10 70 -15 25 -6 56 -13
70 -15 13 -3 56 -12 95 -20 74 -16 92 -20 140 -28 17 -3 41 -8 55 -11 68 -13
94 -18 215 -41 72 -13 150 -27 175 -30 25 -3 54 -7 65 -9 184 -26 419 -26 555
0 14 3 45 8 70 11 25 3 54 8 65 10 10 2 37 6 60 9 22 4 108 19 190 35 180 35
198 39 229 45 132 28 224 47 241 51 11 2 31 6 45 9 36 7 56 11 135 30 39 9 90
18 115 20 48 3 52 11 31 60 -5 11 -21 50 -35 88 -47 123 -123 269 -219 421
-69 110 -335 404 -351 388 -3 -3 -6 -1 -6 5 0 11 -87 75 -183 135 l-60 37 -36
-23 c-31 -19 -60 -27 -96 -27 -5 0 -32 0 -60 0 -50 0 -70 0 -122 1 -16 1 -58
0 -96 -1 -37 -1 -70 1 -73 3 -3 3 -21 2 -40 -2 -19 -4 -36 -5 -39 0 -4 7 -86
3 -93 -5 -2 -2 -17 1 -33 5 -17 5 -29 5 -29 0 0 -5 -10 -6 -22 -1 -12 4 -37 5
-55 1 -19 -5 -33 -4 -33 2 0 5 -5 6 -10 3 -6 -4 -32 -6 -58 -6 -83 0 -146 0
-167 -1 -36 0 -79 12 -105 31 -20 14 -29 16 -44 7z m222 -169 c4 -3 7 -35 6
-73 -1 -51 -5 -70 -18 -80 -12 -8 -65 -13 -172 -13 -141 -1 -154 0 -155 16 0
10 -2 26 -4 35 -3 17 17 41 39 44 6 1 36 9 66 19 66 20 79 24 85 25 2 1 28 10
57 20 48 17 76 19 96 7z m952 -23 c47 -14 97 -30 112 -36 15 -5 28 -9 30 -7 2
1 13 -3 25 -9 16 -9 21 -20 20 -49 l-2 -38 -157 -2 c-188 -2 -188 -2 -186 90
2 96 3 97 158 51z m-977 -268 c28 -21 33 -59 31 -225 -1 -112 -5 -156 -15
-161 -17 -11 -51 3 -103 42 -24 18 -54 40 -66 48 -13 8 -35 24 -49 35 -14 12
-43 32 -64 45 -42 28 -50 48 -49 129 1 114 -18 101 150 101 108 -1 152 -4 165
-14z m1163 -84 l2 -94 -92 -67 c-50 -37 -113 -83 -141 -103 -109 -75 -114 -69
-112 153 3 222 -8 211 196 207 l146 -3 1 -93z"/>
<path d="M2634 7163 c-160 -132 -328 -303 -469 -478 -30 -38 -63 -79 -73 -91
-9 -11 -48 -66 -87 -122 l-70 -101 -393 392 c-216 216 -397 393 -402 395 -6 2
-13 -5 -17 -15 -4 -10 -12 -22 -19 -28 -24 -21 -236 -322 -318 -453 l-27 -43
363 1 c200 1 381 1 403 1 l40 -1 0 -488 c0 -268 1 -490 3 -495 2 -4 29 25 60
65 31 40 62 79 69 86 7 7 13 17 13 21 0 4 16 24 35 44 19 20 35 39 35 42 0 3
8 13 18 23 9 10 42 47 72 82 145 166 318 340 479 480 35 30 72 64 82 74 11 11
19 17 19 13 0 -4 8 1 18 11 26 25 102 86 121 96 9 5 18 12 21 15 13 16 120 91
130 91 5 0 10 5 10 10 0 6 7 10 15 10 8 0 15 4 15 9 0 6 11 16 25 23 42 22
165 100 169 107 3 4 -57 68 -133 144 l-137 137 -70 -57z"/>
<path d="M6813 7039 c-83 -83 -129 -137 -126 -146 3 -7 8 -12 10 -9 3 3 29
-13 59 -35 29 -21 57 -39 61 -39 4 -1 24 -14 43 -30 19 -17 40 -30 46 -30 7 0
14 -4 16 -8 2 -4 42 -38 90 -74 48 -36 93 -71 100 -77 7 -6 23 -19 34 -29 241
-196 540 -502 736 -753 14 -19 36 -45 47 -58 12 -13 21 -27 21 -30 0 -3 10
-17 23 -31 12 -14 35 -44 51 -67 15 -24 33 -47 40 -52 8 -7 11 115 11 471 0
301 4 482 10 486 5 3 183 7 394 9 212 2 387 6 390 9 2 2 -5 18 -17 34 -12 16
-22 34 -22 40 0 5 -4 10 -10 10 -5 0 -10 5 -10 10 0 6 -15 32 -32 59 -18 27
-62 93 -98 146 -36 54 -73 106 -82 116 -10 11 -18 22 -18 25 0 7 -71 96 -83
105 -5 4 -188 -173 -408 -393 -219 -220 -399 -393 -399 -384 0 8 -3 16 -7 18
-5 2 -39 50 -77 107 -120 180 -259 350 -416 510 -67 68 -226 214 -238 218 -4
2 -66 -56 -139 -128z"/>
<path d="M3255 6453 c-101 -20 -173 -71 -215 -153 -22 -43 -24 -56 -25 -271
-1 -161 2 -238 12 -271 15 -54 77 -126 129 -152 22 -10 47 -22 56 -27 20 -10
3122 -7 3155 3 89 27 178 120 189 196 10 70 10 102 1 102 -6 0 -6 5 0 13 5 6
7 37 6 67 -4 73 -4 66 0 138 1 35 -1 66 -5 68 -5 3 -4 13 1 23 16 29 -28 136
-73 182 -22 21 -45 39 -52 39 -7 0 -14 4 -16 10 -4 11 -114 41 -131 35 -7 -2
-25 -6 -42 -9 -16 -3 -41 -7 -55 -11 -14 -3 -38 -8 -55 -11 -16 -2 -44 -9 -62
-13 -17 -5 -34 -6 -37 -3 -3 3 -6 0 -6 -7 0 -7 -4 -10 -9 -7 -5 3 -53 -4 -107
-15 -55 -11 -110 -23 -124 -25 -14 -3 -36 -7 -50 -10 -34 -7 -229 -43 -260
-48 -14 -3 -41 -8 -60 -11 -19 -4 -44 -8 -55 -10 -11 -1 -33 -5 -50 -8 -16 -3
-48 -8 -70 -12 -23 -3 -50 -7 -60 -9 -11 -2 -47 -7 -80 -11 -32 -4 -68 -9 -80
-11 -34 -7 -196 -17 -265 -17 -72 0 -209 13 -310 29 -19 3 -89 14 -155 24 -66
10 -158 26 -205 35 -89 17 -100 19 -165 30 -22 3 -48 8 -57 11 -10 3 -30 7
-45 10 -16 2 -39 7 -53 9 -14 3 -34 7 -45 9 -11 2 -56 12 -100 21 -44 10 -98
21 -120 26 -22 5 -51 11 -65 14 -14 3 -36 7 -50 10 -14 3 -36 7 -50 11 -39 9
-63 11 -85 7z m216 -339 c42 -18 85 -37 95 -43 10 -5 64 -31 119 -56 133 -61
165 -78 173 -90 3 -5 7 -38 8 -72 1 -55 -1 -63 -20 -69 -11 -4 -113 -6 -226
-6 -212 0 -280 11 -318 49 -22 22 -24 301 -2 314 27 16 93 6 171 -27z m2857
-118 c3 -146 2 -150 -20 -171 -22 -20 -46 -30 -108 -42 -40 -8 -425 -7 -438 1
-20 12 -15 130 6 148 19 17 167 88 182 88 6 0 10 5 10 12 0 6 3 9 6 5 3 -3 22
3 42 13 64 32 176 83 202 91 14 4 45 7 70 6 l45 -2 3 -149z"/>
<path d="M135 6191 c-42 -19 -108 -87 -99 -102 3 -5 1 -9 -3 -9 -15 0 -35 -88
-31 -133 5 -44 38 -110 63 -124 14 -8 186 -165 241 -220 18 -18 34 -33 37 -33
2 0 24 -19 48 -42 37 -36 170 -158 263 -243 102 -92 213 -194 245 -224 22 -20
71 -65 110 -101 40 -36 89 -81 110 -100 20 -19 74 -69 120 -110 46 -41 102
-93 126 -115 23 -22 82 -76 130 -120 48 -44 100 -91 115 -105 15 -14 70 -63
121 -110 51 -47 116 -106 144 -132 27 -26 64 -60 81 -75 16 -16 75 -70 131
-121 55 -51 110 -100 120 -110 11 -9 64 -57 118 -107 54 -49 110 -101 124
-113 14 -13 66 -61 115 -105 48 -45 100 -93 116 -107 139 -127 221 -202 261
-240 26 -25 75 -70 109 -100 34 -30 79 -71 100 -90 52 -48 211 -195 278 -255
30 -27 72 -66 93 -85 21 -19 67 -62 104 -95 36 -33 87 -80 113 -105 27 -25 88
-81 137 -125 48 -44 100 -91 115 -105 15 -14 69 -63 120 -110 52 -47 108 -98
125 -115 18 -16 72 -66 121 -110 48 -44 105 -96 125 -115 20 -19 74 -69 119
-110 46 -41 95 -86 110 -100 15 -14 67 -61 115 -105 49 -44 105 -96 126 -115
20 -19 67 -62 104 -95 36 -33 90 -82 119 -110 305 -287 421 -384 599 -499 166
-108 419 -218 557 -242 8 -1 26 -5 39 -8 26 -6 93 -15 162 -21 l47 -5 -3 33
c-2 17 -6 46 -9 62 -4 17 -9 46 -12 65 -3 19 -9 60 -14 90 -5 30 -12 75 -15
100 -4 24 -9 48 -12 52 -2 5 -6 30 -8 56 -2 26 -4 47 -5 47 -2 0 -4 11 -14 80
-3 22 -8 51 -11 65 -3 14 -8 41 -11 60 -10 68 -12 69 -52 62 -46 -9 -373 -7
-427 2 -86 14 -230 59 -245 75 -3 3 -16 12 -30 19 -25 13 -49 33 -199 170
-170 155 -195 177 -221 202 -15 14 -69 63 -120 110 -51 47 -108 99 -125 115
-41 38 -202 185 -225 205 -23 20 -195 177 -235 215 -51 48 -265 244 -371 340
-58 53 -190 174 -224 205 -21 19 -75 69 -120 110 -45 41 -95 86 -110 100 -15
14 -71 66 -125 115 -54 50 -109 99 -121 110 -49 45 -210 192 -245 225 -21 19
-70 65 -111 102 -40 36 -91 83 -113 103 -38 35 -178 162 -234 213 -14 13 -69
64 -122 113 -53 49 -106 97 -116 107 -20 17 -174 157 -239 217 -33 30 -59 54
-218 200 -48 44 -102 94 -120 110 -93 86 -236 216 -269 246 -21 19 -55 50 -76
69 -20 19 -79 73 -130 120 -52 47 -108 98 -125 114 -17 15 -56 51 -87 80 -30
28 -95 87 -143 131 -49 44 -108 98 -131 120 -24 22 -73 67 -110 100 -36 33
-83 76 -104 95 -56 53 -326 300 -383 350 -16 14 -51 47 -79 73 -88 82 -151
101 -224 68z"/>
<path d="M9435 6197 c-37 -13 -52 -24 -166 -128 -50 -46 -104 -95 -119 -109
-15 -14 -69 -63 -120 -110 -51 -47 -102 -94 -114 -105 -13 -11 -64 -58 -115
-105 -52 -47 -106 -96 -121 -110 -30 -28 -186 -171 -229 -210 -60 -56 -229
-209 -269 -246 -24 -21 -60 -55 -81 -74 -21 -19 -78 -72 -128 -117 -49 -46
-103 -95 -119 -110 -17 -16 -75 -68 -129 -118 -55 -49 -111 -101 -126 -115
-15 -14 -66 -61 -115 -105 -119 -109 -127 -116 -228 -209 -48 -44 -98 -90
-110 -101 -54 -48 -190 -173 -225 -205 -20 -19 -77 -71 -125 -115 -49 -44
-106 -96 -126 -115 -48 -45 -113 -104 -230 -210 -51 -47 -109 -100 -129 -119
-20 -18 -70 -64 -111 -101 -41 -37 -98 -90 -127 -116 -28 -27 -82 -77 -120
-110 -37 -34 -84 -77 -104 -95 -20 -19 -78 -72 -129 -119 -52 -47 -119 -108
-149 -136 -63 -58 -97 -90 -167 -153 -27 -24 -79 -72 -115 -105 -36 -34 -107
-99 -159 -146 -51 -47 -111 -102 -133 -122 -23 -21 -45 -38 -49 -38 -4 0 -8
-7 -8 -15 0 -8 -5 -15 -11 -15 -6 0 4 -12 22 -27 19 -16 48 -41 65 -58 72 -69
207 -190 214 -193 3 -1 19 9 34 23 15 14 28 25 30 25 2 0 26 21 53 48 28 26
92 85 143 132 52 47 116 106 144 132 84 77 117 107 199 182 44 39 96 87 116
106 20 19 77 71 125 115 49 44 106 96 126 115 21 19 77 71 125 115 49 44 100
91 115 105 15 14 69 63 120 110 51 47 105 96 120 110 15 14 69 63 120 110 52
47 121 110 154 141 34 31 73 67 88 80 47 43 271 249 374 344 6 5 49 44 94 85
46 41 113 103 149 136 36 34 78 72 93 85 42 38 197 181 238 219 20 19 77 71
125 115 99 90 104 94 233 213 51 47 101 92 111 101 10 9 60 54 111 101 100 92
97 89 250 230 56 52 110 102 120 110 38 33 185 167 219 200 20 19 79 73 130
120 51 47 112 102 135 123 22 21 57 52 76 70 125 114 156 146 169 172 44 97
-3 236 -103 301 -34 21 -88 26 -131 11z"/>
<path d="M3228 5486 c-6 -11 -8 -43 -5 -75 6 -57 7 -63 27 -141 6 -25 13 -58
16 -75 3 -16 17 -75 31 -130 14 -55 27 -109 29 -120 2 -11 6 -31 9 -45 11 -46
15 -65 19 -88 3 -12 8 -27 11 -32 3 -6 3 -10 -2 -11 -60 -5 -73 -24 -69 -103
2 -33 6 -72 10 -86 3 -14 8 -38 11 -55 3 -16 8 -41 11 -55 13 -63 15 -77 19
-100 2 -14 7 -36 9 -50 3 -13 8 -40 11 -60 3 -20 8 -47 11 -60 7 -36 12 -60
39 -205 13 -71 27 -141 29 -155 7 -36 126 -267 177 -342 72 -107 197 -245 282
-311 15 -12 40 -32 55 -45 42 -35 184 -119 264 -157 74 -33 238 -89 293 -98
17 -3 39 -8 50 -10 150 -34 420 -28 585 13 25 6 55 13 68 16 105 22 295 112
432 202 98 66 276 237 344 332 25 36 49 70 54 75 22 31 48 80 89 165 25 52 52
103 60 112 13 15 25 61 46 183 5 28 25 130 32 165 2 8 4 17 5 20 1 3 2 8 1 13
-1 4 3 26 8 50 6 23 13 58 16 77 3 19 8 42 10 50 2 8 7 33 10 55 7 44 13 70
15 70 1 0 3 18 6 40 2 22 7 47 10 55 13 36 16 142 4 170 -10 24 -17 29 -36 26
-13 -3 -24 -3 -24 -1 0 7 31 141 67 285 19 80 36 156 38 170 2 14 4 26 5 28 3
3 3 3 20 77 17 75 19 134 8 161 -9 20 -17 21 -161 20 -84 -1 -159 -6 -168 -11
-29 -18 -37 -72 -39 -257 -3 -389 -5 -463 -15 -466 -25 -8 -45 -38 -51 -78 -8
-56 -8 -77 0 -249 4 -77 9 -183 11 -235 2 -52 7 -153 11 -225 3 -71 7 -150 8
-174 2 -33 -6 -59 -28 -100 -16 -31 -33 -57 -38 -59 -4 -2 -8 -10 -8 -18 0
-20 -124 -185 -186 -249 -63 -64 -214 -185 -231 -185 -7 0 -13 -4 -13 -8 0
-16 -249 -134 -309 -147 -9 -2 -43 -10 -76 -19 -218 -56 -464 -51 -685 13 -84
24 -220 80 -244 100 -10 9 -21 16 -25 15 -25 -2 -206 131 -282 206 -46 47
-119 129 -147 165 -13 17 -69 108 -93 150 -46 82 -49 91 -44 115 3 14 7 76 9
137 3 62 8 117 12 124 5 8 3 9 -6 4 -9 -6 -11 -4 -5 5 4 7 9 45 10 84 2 39 6
145 11 236 11 253 10 310 -10 352 -10 21 -21 37 -24 36 -4 0 -12 0 -17 1 -7 1
-10 110 -9 309 0 169 -4 327 -9 352 -15 74 -17 75 -193 76 -145 0 -156 -1
-166 -20z m159 -807 c6 -19 14 -51 17 -71 12 -79 19 -84 102 -84 49 1 77 5 83
14 4 7 7 46 6 88 -1 73 8 107 17 61 6 -29 -4 -347 -17 -557 -2 -41 -6 -119 -7
-172 -2 -54 -5 -98 -8 -99 -3 -1 -24 -2 -47 -4 -42 -2 -49 5 -44 38 0 4 -2 7
-7 7 -4 0 -8 12 -8 28 -1 25 -6 55 -19 122 -3 14 -7 36 -10 50 -3 14 -10 49
-16 79 -6 30 -12 64 -14 75 -2 18 -30 167 -50 271 -12 57 -15 80 -21 137 -5
51 -4 56 13 54 11 -2 23 -17 30 -37z m2694 -150 c16 -9 148 -4 159 7 5 5 11
21 14 34 2 14 5 27 6 30 1 3 3 10 5 15 1 6 3 12 4 15 2 3 4 14 6 25 9 53 13
60 31 60 21 0 23 -16 11 -85 -5 -25 -10 -61 -13 -80 -2 -19 -7 -43 -10 -52 -3
-10 -7 -30 -10 -45 -2 -16 -11 -62 -19 -103 -8 -41 -17 -88 -20 -105 -2 -16
-7 -41 -10 -55 -2 -14 -9 -47 -15 -75 -10 -50 -19 -102 -26 -140 -3 -19 -6
-32 -19 -96 -5 -23 -11 -26 -45 -25 -21 1 -42 4 -45 7 -7 7 -13 111 -19 292
-2 71 -6 131 -9 134 -3 3 -2 15 3 28 5 13 6 26 2 29 -3 4 -7 39 -9 79 -7 189
-6 254 3 277 7 19 10 3 12 -70 2 -52 7 -97 13 -101z"/>
<path d="M3720 5472 c-45 -14 -45 -15 -45 -331 1 -286 2 -302 20 -316 28 -20
84 -18 123 5 17 11 32 17 32 14 0 -4 6 -2 13 4 10 8 154 58 197 67 8 2 35 8
60 14 25 5 59 12 75 15 17 3 46 8 65 11 43 8 58 10 140 20 36 4 79 9 95 11 25
3 336 16 370 15 54 -1 259 -12 299 -16 134 -14 162 -18 181 -21 10 -2 37 -6
60 -10 55 -8 176 -33 184 -39 4 -2 22 -7 39 -10 18 -3 57 -15 87 -26 30 -11
58 -20 62 -20 5 -1 14 -5 21 -11 6 -6 12 -7 12 -2 0 5 4 4 8 -1 19 -27 90 -43
127 -29 22 9 48 61 34 69 -7 5 -7 11 0 19 6 7 9 15 7 17 -4 4 -7 74 -5 119 0
8 0 69 -1 135 0 66 0 125 0 130 3 22 -1 121 -6 136 -2 9 -14 20 -27 26 -22 10
-2195 15 -2227 5z"/>
<path d="M638 4824 c-3 -5 -13 -34 -22 -64 -10 -30 -21 -64 -26 -75 -5 -11
-26 -73 -46 -137 l-38 -118 -75 1 c-42 0 -139 0 -215 0 l-140 -1 82 -60 c45
-33 87 -60 92 -60 6 0 10 -3 10 -7 0 -5 36 -33 80 -63 96 -66 94 -47 25 -250
-20 -58 -38 -112 -40 -120 -2 -8 -10 -34 -19 -58 -11 -30 -12 -41 -3 -36 11 7
100 69 122 86 6 5 56 42 112 83 l101 75 41 -27 c23 -15 41 -30 41 -35 0 -4 6
-8 14 -8 7 0 25 -11 40 -25 15 -14 30 -25 33 -25 3 0 19 -11 37 -25 17 -14 36
-29 41 -33 6 -4 26 -19 45 -33 51 -38 60 -42 56 -27 -23 72 -99 306 -103 318
-3 8 -7 20 -9 25 -2 6 -6 20 -9 31 -6 18 6 30 67 74 40 29 75 56 78 60 3 4 10
9 15 11 6 2 48 31 93 64 56 40 77 61 65 62 -10 2 -106 4 -213 5 l-195 3 -44
135 c-70 216 -88 264 -93 254z"/>
<path d="M8920 4753 c-13 -43 -28 -84 -33 -90 -5 -7 -7 -13 -5 -13 3 0 -12
-48 -31 -107 l-36 -108 -190 -2 c-104 -1 -201 -2 -215 -3 -26 0 -24 -2 189
-155 46 -33 95 -69 108 -80 l25 -21 -37 -114 c-20 -63 -40 -124 -45 -135 -4
-11 -17 -48 -28 -82 -22 -69 -15 -78 30 -40 14 12 36 29 48 37 12 8 73 52 135
98 l114 83 148 -107 c81 -59 158 -116 171 -127 17 -16 22 -17 22 -6 0 15 -33
123 -50 164 -15 36 -70 220 -70 233 0 6 4 12 9 12 5 0 16 6 23 13 7 8 30 25
49 38 76 50 257 184 254 187 -2 2 -95 3 -208 3 -215 -1 -222 0 -230 45 -2 10
-7 26 -10 34 -6 15 -70 211 -72 220 -15 60 -29 100 -34 100 -4 0 -18 -35 -31
-77z"/>
<path d="M1036 3143 c-16 -49 -38 -115 -50 -148 l-22 -60 -152 0 c-84 0 -152
-2 -152 -5 0 -9 39 -40 50 -40 6 0 10 -4 10 -10 0 -5 6 -10 14 -10 8 0 16 -4
18 -8 2 -4 37 -33 79 -63 l76 -55 -18 -50 c-11 -27 -19 -49 -18 -49 0 0 -1 -3
-35 -111 -30 -93 -31 -99 -13 -84 6 5 37 28 67 49 30 22 60 45 67 51 7 5 16
10 22 10 5 0 11 3 13 8 2 4 19 19 39 34 l37 27 33 -25 c108 -80 223 -164 226
-164 1 0 -1 10 -6 23 -11 26 -72 216 -76 237 -2 8 -6 22 -9 30 -5 12 19 34 84
80 50 36 103 75 118 87 15 13 31 23 35 23 5 0 6 4 3 8 -2 4 -72 8 -155 7
l-151 -1 -15 41 c-19 54 -47 138 -49 150 -1 6 -4 15 -8 20 -3 6 -9 27 -13 48
-4 20 -10 37 -14 37 -4 0 -20 -39 -35 -87z"/>
<path d="M8525 3085 c-32 -98 -52 -146 -64 -148 -9 -3 -76 -4 -149 -3 -73 1
-138 -2 -145 -6 -8 -5 -7 -8 5 -8 9 0 18 -4 20 -8 2 -4 51 -43 111 -86 59 -43
107 -81 107 -85 0 -8 -16 -61 -27 -91 -4 -8 -7 -19 -8 -25 0 -5 -4 -17 -7 -25
-18 -44 -47 -144 -43 -148 2 -3 31 15 64 39 32 24 69 51 81 59 13 8 35 24 49
36 14 11 35 25 45 31 19 11 21 10 59 -22 7 -6 28 -22 47 -35 19 -13 44 -32 54
-42 11 -10 23 -18 28 -18 4 0 23 -14 43 -31 19 -17 35 -27 35 -21 0 6 -21 74
-46 152 -36 112 -43 144 -33 156 6 8 17 14 24 14 7 0 15 7 19 15 3 8 12 15 21
15 8 0 15 4 15 8 0 5 22 23 48 40 26 17 63 44 80 59 l33 29 -151 -1 c-83 0
-155 2 -159 5 -9 5 -94 256 -94 278 -1 37 -20 -3 -62 -133z"/>
<path d="M377 2185 c-43 -11 -100 -43 -148 -83 -54 -44 -162 -228 -175 -297
-2 -11 -7 -31 -10 -45 -8 -32 -8 -176 0 -215 43 -198 164 -337 376 -429 36
-16 103 -47 150 -68 47 -22 104 -49 127 -60 52 -24 66 -21 70 18 3 36 11 89
13 89 2 0 8 46 14 100 3 22 9 63 15 90 6 28 12 64 15 80 6 46 26 166 32 200 4
17 8 44 10 60 10 70 12 80 14 80 0 0 3 16 5 35 2 19 6 48 9 64 3 16 8 50 12
75 4 25 8 54 10 65 3 18 -17 46 -34 46 -5 0 -20 8 -33 19 -13 10 -28 18 -33
18 -4 0 -15 5 -25 12 -193 137 -300 175 -414 146z"/>
<path d="M9148 2180 c-57 -18 -84 -32 -193 -101 -38 -25 -96 -60 -127 -79 -62
-37 -63 -39 -48 -121 5 -30 12 -70 15 -89 3 -19 8 -48 11 -65 3 -16 7 -46 9
-65 2 -19 4 -35 5 -35 2 0 7 -25 15 -77 28 -187 33 -213 35 -213 1 0 3 -11 4
-25 2 -14 7 -45 11 -70 4 -25 8 -54 10 -65 2 -11 4 -22 5 -25 1 -3 2 -8 1 -12
0 -4 4 -31 9 -60 14 -77 18 -102 19 -111 1 -4 9 -3 19 3 27 15 193 90 199 90
3 0 64 29 137 64 178 87 264 170 325 311 27 63 48 175 45 240 -5 112 -61 256
-140 361 -101 134 -233 186 -366 144z"/>
<path d="M8644 1900 c-21 -20 -506 -253 -572 -274 -25 -8 -25 -9 -11 -96 6
-36 13 -76 14 -90 2 -14 6 -36 9 -50 7 -39 15 -90 22 -145 3 -27 8 -53 10 -57
2 -3 7 -30 10 -60 3 -29 7 -56 9 -59 2 -3 7 -28 10 -55 4 -27 8 -59 11 -71 7
-40 14 -77 24 -138 16 -93 18 -109 19 -122 1 -13 101 15 113 32 4 5 8 7 8 3 0
-4 39 9 88 28 48 20 92 36 98 37 9 2 44 17 214 89 78 33 95 45 93 70 -4 40
-11 92 -17 118 -3 14 -7 43 -10 65 -3 22 -10 67 -16 100 -6 33 -13 76 -16 95
-4 19 -7 42 -8 50 -2 17 -16 103 -22 140 -2 14 -7 41 -10 60 -3 19 -7 46 -10
60 -3 14 -7 43 -10 65 -6 46 -12 80 -14 80 -1 0 -3 9 -4 20 -8 51 -18 110 -20
112 -1 2 -7 -1 -12 -7z"/>
<path d="M1025 1878 c-10 -45 -17 -88 -30 -181 -3 -23 -13 -78 -21 -122 -8
-44 -17 -98 -19 -120 -3 -22 -10 -62 -15 -90 -5 -27 -12 -68 -15 -90 -2 -22
-9 -63 -14 -92 -6 -29 -13 -74 -17 -100 -3 -26 -8 -57 -10 -68 -3 -11 -7 -38
-10 -60 l-6 -41 79 -33 c43 -18 87 -37 98 -41 11 -4 36 -15 55 -23 61 -26 263
-104 310 -120 25 -8 52 -18 61 -21 12 -6 18 7 28 71 7 43 14 87 16 98 2 11 7
45 11 75 8 58 10 69 13 73 2 1 4 16 6 32 2 17 9 62 15 100 7 39 14 84 16 100
3 17 7 37 9 45 2 8 6 35 9 60 3 25 8 55 10 66 5 22 12 68 22 132 3 20 7 47 9
59 4 28 -1 32 -110 78 -108 45 -414 193 -435 210 -8 7 -25 16 -37 19 -18 6
-23 3 -28 -16z"/>
<path d="M4424 1636 c-11 -11 -65 -61 -119 -111 -54 -49 -111 -102 -127 -117
-16 -16 -30 -28 -33 -28 -2 0 -21 -17 -42 -38 -61 -59 -129 -112 -136 -105 -4
3 -7 2 -7 -4 0 -9 -25 -21 -125 -59 -11 -4 -24 -6 -28 -5 -4 0 -16 -3 -25 -8
-9 -5 -40 -12 -67 -16 -76 -11 -384 -14 -433 -5 -23 4 -44 4 -47 0 -4 -7 -11
-41 -21 -109 -4 -25 -11 -56 -15 -69 -6 -15 -5 -21 1 -17 6 4 7 -2 1 -17 -5
-13 -11 -42 -14 -65 -4 -23 -15 -96 -27 -164 -11 -67 -22 -136 -25 -153 -3
-17 -7 -42 -10 -56 -3 -14 -7 -46 -11 -73 l-6 -47 39 4 c135 15 169 19 175 22
3 2 30 9 59 14 104 20 304 101 442 179 46 26 90 54 97 61 3 3 17 11 32 19 15
8 37 22 47 33 11 10 24 18 30 18 5 0 11 3 13 8 2 4 46 41 98 83 52 42 118 98
147 125 56 53 105 98 259 239 53 50 125 115 158 146 l60 57 -26 23 c-14 13
-66 60 -114 104 -48 44 -97 89 -109 101 -11 11 -32 28 -46 36 -22 15 -25 14
-45 -6z"/>
<path d="M1741 1556 c4 -4 2 -28 -3 -54 -5 -26 -11 -65 -14 -87 -5 -43 -11
-80 -14 -80 -1 0 -3 -14 -5 -30 -2 -17 -6 -46 -9 -65 -4 -19 -9 -48 -11 -65
-12 -76 -16 -104 -25 -155 -5 -30 -12 -73 -15 -95 -3 -22 -8 -49 -10 -61 -3
-12 -7 -39 -10 -60 -3 -21 -7 -48 -10 -59 -2 -11 -7 -41 -10 -66 l-6 -47 38
-12 c21 -6 45 -14 53 -17 8 -4 17 -7 20 -8 3 -1 39 -12 80 -25 41 -13 80 -24
85 -25 10 -1 60 -15 148 -42 46 -14 84 -22 120 -26 9 -1 17 -4 17 -7 0 -3 15
-6 34 -7 37 -3 37 -4 51 102 3 22 8 51 10 65 3 14 8 42 11 64 3 21 8 48 10 60
3 11 7 39 10 61 5 39 8 59 18 101 2 12 7 45 11 75 4 30 10 72 15 94 10 44 21
114 26 160 2 17 6 44 9 62 6 30 4 32 -47 51 -29 11 -64 23 -78 27 -31 8 -187
63 -215 75 -140 58 -299 112 -284 96z"/>
<path d="M7840 1528 c-93 -38 -308 -118 -335 -125 -11 -3 -27 -7 -35 -11 -8
-3 -17 -6 -20 -7 -3 -1 -12 -4 -20 -8 -8 -3 -39 -13 -68 -22 -28 -9 -50 -20
-48 -24 6 -9 15 -60 31 -176 6 -36 25 -149 30 -175 3 -14 8 -45 11 -70 3 -25
7 -56 10 -70 3 -14 7 -38 10 -53 3 -24 34 -206 49 -294 5 -33 15 -44 28 -36 7
4 17 8 22 9 10 2 56 12 90 19 11 3 61 16 110 30 50 14 101 28 114 31 14 3 28
7 33 10 4 3 16 7 25 9 10 2 62 17 116 35 l97 31 -5 32 c-2 18 -7 48 -10 67
-19 113 -65 391 -70 425 -3 23 -8 52 -10 65 -3 14 -7 41 -10 60 -3 19 -7 46
-10 60 -3 14 -7 41 -10 60 -3 19 -7 49 -10 65 -3 17 -7 45 -10 63 -3 17 -11
32 -18 31 -7 0 -46 -14 -87 -31z"/>
<path d="M2479 1287 c-1 -14 -5 -38 -19 -122 -6 -33 -13 -73 -15 -90 -8 -56
-15 -100 -22 -135 -4 -19 -7 -39 -8 -45 -1 -10 -12 -77 -20 -126 -2 -13 -6
-40 -9 -59 -3 -19 -8 -48 -11 -65 -3 -16 -8 -46 -11 -65 -3 -19 -7 -46 -9 -60
-2 -14 -6 -40 -9 -57 -4 -18 -3 -33 1 -34 33 -3 101 -14 158 -25 76 -15 280
-33 417 -37 l67 -2 6 40 c11 69 15 89 20 115 3 14 8 43 10 65 3 22 7 51 10 65
3 14 8 41 11 60 2 19 14 91 25 160 11 69 22 134 23 145 6 37 18 110 21 127 4
17 -7 21 -90 34 -27 5 -52 9 -55 9 -3 1 -23 5 -45 9 -22 5 -76 17 -120 28 -44
10 -91 21 -105 24 -14 3 -56 14 -95 26 -90 27 -125 31 -126 15z"/>
<path d="M7158 1295 c-3 -3 -16 -8 -28 -10 -13 -2 -48 -12 -79 -21 -31 -9 -63
-18 -71 -19 -8 -2 -46 -11 -85 -20 -95 -23 -106 -25 -135 -31 -14 -2 -34 -6
-46 -9 -12 -3 -39 -7 -60 -11 -21 -3 -46 -8 -54 -9 -8 -2 -19 -4 -23 -4 -8 -1
-5 -25 9 -106 3 -16 7 -41 9 -55 9 -61 16 -109 25 -155 14 -75 22 -127 25
-160 2 -16 4 -30 5 -30 1 0 3 -9 4 -20 11 -78 18 -125 26 -160 5 -22 11 -56
15 -75 l5 -36 63 3 c125 5 242 12 242 14 0 0 14 2 30 4 28 3 45 5 155 20 122
17 148 25 153 50 2 14 1 25 -2 25 -4 0 -7 8 -7 18 -1 22 -14 113 -30 202 -4
19 -8 46 -10 60 -1 14 -6 41 -10 60 -11 55 -13 62 -19 105 -3 22 -7 49 -9 60
-4 24 -18 112 -22 140 -4 29 -14 87 -18 110 -3 11 -5 30 -5 43 -1 16 -7 22
-24 22 -13 0 -26 -2 -29 -5z"/>
</g>
</svg>
